M48
;DRILL file {KiCad (5.0.2)-1} date 2019-02-04 10:04:32 PM
;FORMAT={-:-/ absolute / inch / decimal}
FMAT,2
INCH,TZ
T1C0.0276
T2C0.0295
T3C0.0315
T4C0.0315
T5C0.0320
T6C0.0354
T7C0.0400
T8C0.0433
T9C0.0700
%
G90
G05
T1
X6.58Y-2.555
X6.58Y-2.855
X5.5Y-2.555
X5.5Y-2.855
X5.9Y-3.775
X6.2Y-3.775
X5.94Y-2.575
X5.94Y-2.875
X6.1Y-2.575
X6.1Y-2.875
T2
X6.Y-3.575
X6.05Y-3.575
X6.1Y-3.575
T3
X5.9816Y-3.175
X6.08Y-3.175
T4
X6.575Y-3.775
X6.575Y-3.9
X6.575Y-4.025
X6.575Y-4.15
X6.54Y-2.96
X6.54Y-3.08
X6.54Y-3.205
X5.95Y-3.015
X6.1Y-3.015
X5.56Y-3.895
X5.56Y-4.02
X5.56Y-4.145
T5
X6.48Y-3.485
X6.48Y-3.585
X6.555Y-3.535
T6
X5.58Y-2.335
X5.58Y-2.435
X5.88Y-2.335
X5.88Y-2.435
X6.18Y-2.335
X6.18Y-2.435
X6.5Y-2.335
X6.5Y-2.435
T7
X5.73Y-2.88
X5.73Y-2.98
X5.73Y-3.08
X5.73Y-3.18
X5.73Y-3.28
X5.73Y-3.38
X5.73Y-3.48
X5.73Y-3.58
X5.73Y-3.68
X5.73Y-3.78
X5.73Y-3.88
X5.73Y-3.98
X5.73Y-4.08
X5.73Y-4.18
X5.73Y-4.28
X6.33Y-2.88
X6.33Y-2.98
X6.33Y-3.08
X6.33Y-3.18
X6.33Y-3.28
X6.33Y-3.38
X6.33Y-3.48
X6.33Y-3.58
X6.33Y-3.68
X6.33Y-3.78
X6.33Y-3.88
X6.33Y-3.98
X6.33Y-4.08
X6.33Y-4.18
X6.33Y-4.28
T8
X5.82Y-3.335
X6.22Y-3.335
T9
X6.58Y-4.295
X6.33Y-2.25
X5.5Y-4.295
X5.73Y-2.25
T0
M30
