G04 #@! TF.GenerationSoftware,KiCad,Pcbnew,(5.0.2)-1*
G04 #@! TF.CreationDate,2019-02-17T11:04:42-05:00*
G04 #@! TF.ProjectId,main,6d61696e-2e6b-4696-9361-645f70636258,rev?*
G04 #@! TF.SameCoordinates,Original*
G04 #@! TF.FileFunction,Legend,Top*
G04 #@! TF.FilePolarity,Positive*
%FSLAX46Y46*%
G04 Gerber Fmt 4.6, Leading zero omitted, Abs format (unit mm)*
G04 Created by KiCad (PCBNEW (5.0.2)-1) date 2019-02-17 11:04:42 AM*
%MOMM*%
%LPD*%
G01*
G04 APERTURE LIST*
%ADD10C,0.150000*%
%ADD11C,0.203200*%
%ADD12C,0.120000*%
%ADD13C,0.125000*%
%ADD14C,0.065000*%
%ADD15C,0.050000*%
G04 APERTURE END LIST*
D10*
X148113714Y-73604380D02*
X147542285Y-73604380D01*
X147828000Y-73604380D02*
X147828000Y-72604380D01*
X147732761Y-72747238D01*
X147637523Y-72842476D01*
X147542285Y-72890095D01*
G04 #@! TO.C,P2*
X162052000Y-74422000D02*
X162052000Y-71882000D01*
X162052000Y-71882000D02*
X159512000Y-71882000D01*
X159512000Y-71882000D02*
X159512000Y-74422000D01*
X162052000Y-74422000D02*
X162052000Y-109982000D01*
X162052000Y-109982000D02*
X159512000Y-109982000D01*
X159512000Y-109982000D02*
X159512000Y-74422000D01*
X159512000Y-74422000D02*
X162052000Y-74422000D01*
D11*
G04 #@! TO.C,U2*
X162817622Y-84262551D02*
G75*
G02X167013500Y-85573700I1647375J-2097448D01*
G01*
X167013400Y-87146299D02*
G75*
G02X162814000Y-88454500I-2548411J786287D01*
G01*
X162814000Y-84265500D02*
X162814000Y-88454500D01*
X164211000Y-83705100D02*
X164211000Y-84106300D01*
X164211000Y-86073700D02*
X164211000Y-86646300D01*
X164211000Y-88613700D02*
X164211000Y-89014900D01*
D10*
G04 #@! TO.C,P1*
X146812000Y-74422000D02*
X146812000Y-71882000D01*
X146812000Y-71882000D02*
X144272000Y-71882000D01*
X144272000Y-71882000D02*
X144272000Y-74422000D01*
X146812000Y-74422000D02*
X146812000Y-109982000D01*
X146812000Y-109982000D02*
X144272000Y-109982000D01*
X144272000Y-109982000D02*
X144272000Y-74422000D01*
X144272000Y-74422000D02*
X146812000Y-74422000D01*
D12*
G04 #@! TO.C,D1*
X165099538Y-63569000D02*
G75*
G03X166644830Y-58019000I462J2990000D01*
G01*
X165100462Y-63569000D02*
G75*
G02X163555170Y-58019000I-462J2990000D01*
G01*
X167600000Y-60579000D02*
G75*
G03X167600000Y-60579000I-2500000J0D01*
G01*
X166645000Y-58019000D02*
X163555000Y-58019000D01*
G04 #@! TO.C,D2*
X158517000Y-58019000D02*
X155427000Y-58019000D01*
X159472000Y-60579000D02*
G75*
G03X159472000Y-60579000I-2500000J0D01*
G01*
X156972462Y-63569000D02*
G75*
G02X155427170Y-58019000I-462J2990000D01*
G01*
X156971538Y-63569000D02*
G75*
G03X158516830Y-58019000I462J2990000D01*
G01*
G04 #@! TO.C,D3*
X149351538Y-63569000D02*
G75*
G03X150896830Y-58019000I462J2990000D01*
G01*
X149352462Y-63569000D02*
G75*
G02X147807170Y-58019000I-462J2990000D01*
G01*
X151852000Y-60579000D02*
G75*
G03X151852000Y-60579000I-2500000J0D01*
G01*
X150897000Y-58019000D02*
X147807000Y-58019000D01*
G04 #@! TO.C,D4*
X143277000Y-58019000D02*
X140187000Y-58019000D01*
X144232000Y-60579000D02*
G75*
G03X144232000Y-60579000I-2500000J0D01*
G01*
X141732462Y-63569000D02*
G75*
G02X140187170Y-58019000I-462J2990000D01*
G01*
X141731538Y-63569000D02*
G75*
G03X143276830Y-58019000I462J2990000D01*
G01*
G04 #@! TO.C,R1*
X167132000Y-65837000D02*
X167132000Y-66787000D01*
X167132000Y-71577000D02*
X167132000Y-70627000D01*
X166212000Y-66787000D02*
X166212000Y-70627000D01*
X168052000Y-66787000D02*
X166212000Y-66787000D01*
X168052000Y-70627000D02*
X168052000Y-66787000D01*
X166212000Y-70627000D02*
X168052000Y-70627000D01*
G04 #@! TO.C,R2*
X156116788Y-68743257D02*
X157036788Y-70336743D01*
X157036788Y-70336743D02*
X160362326Y-68416743D01*
X160362326Y-68416743D02*
X159442326Y-66823257D01*
X159442326Y-66823257D02*
X156116788Y-68743257D01*
X155754064Y-70015000D02*
X156576788Y-69540000D01*
X160725050Y-67145000D02*
X159902326Y-67620000D01*
G04 #@! TO.C,R3*
X145090950Y-67145000D02*
X145913674Y-67620000D01*
X150061936Y-70015000D02*
X149239212Y-69540000D01*
X145453674Y-68416743D02*
X148779212Y-70336743D01*
X146373674Y-66823257D02*
X145453674Y-68416743D01*
X149699212Y-68743257D02*
X146373674Y-66823257D01*
X148779212Y-70336743D02*
X149699212Y-68743257D01*
G04 #@! TO.C,R4*
X138780000Y-70627000D02*
X140620000Y-70627000D01*
X140620000Y-70627000D02*
X140620000Y-66787000D01*
X140620000Y-66787000D02*
X138780000Y-66787000D01*
X138780000Y-66787000D02*
X138780000Y-70627000D01*
X139700000Y-71577000D02*
X139700000Y-70627000D01*
X139700000Y-65837000D02*
X139700000Y-66787000D01*
G04 #@! TO.C,U3*
D10*
X162012380Y-98869404D02*
X162821904Y-98869404D01*
X162917142Y-98821785D01*
X162964761Y-98774166D01*
X163012380Y-98678928D01*
X163012380Y-98488452D01*
X162964761Y-98393214D01*
X162917142Y-98345595D01*
X162821904Y-98297976D01*
X162012380Y-98297976D01*
X162012380Y-97917023D02*
X162012380Y-97297976D01*
X162393333Y-97631309D01*
X162393333Y-97488452D01*
X162440952Y-97393214D01*
X162488571Y-97345595D01*
X162583809Y-97297976D01*
X162821904Y-97297976D01*
X162917142Y-97345595D01*
X162964761Y-97393214D01*
X163012380Y-97488452D01*
X163012380Y-97774166D01*
X162964761Y-97869404D01*
X162917142Y-97917023D01*
D13*
X163937190Y-103381904D02*
X164437190Y-103215238D01*
X163937190Y-103048571D01*
X164437190Y-102881904D02*
X164103857Y-102881904D01*
X163937190Y-102881904D02*
X163961000Y-102905714D01*
X163984809Y-102881904D01*
X163961000Y-102858095D01*
X163937190Y-102881904D01*
X163984809Y-102881904D01*
X164103857Y-102643809D02*
X164437190Y-102643809D01*
X164151476Y-102643809D02*
X164127666Y-102620000D01*
X164103857Y-102572380D01*
X164103857Y-102500952D01*
X164127666Y-102453333D01*
X164175285Y-102429523D01*
X164437190Y-102429523D01*
X163961000Y-100202952D02*
X163937190Y-100250571D01*
X163937190Y-100322000D01*
X163961000Y-100393428D01*
X164008619Y-100441047D01*
X164056238Y-100464857D01*
X164151476Y-100488666D01*
X164222904Y-100488666D01*
X164318142Y-100464857D01*
X164365761Y-100441047D01*
X164413380Y-100393428D01*
X164437190Y-100322000D01*
X164437190Y-100274380D01*
X164413380Y-100202952D01*
X164389571Y-100179142D01*
X164222904Y-100179142D01*
X164222904Y-100274380D01*
X164437190Y-99964857D02*
X163937190Y-99964857D01*
X164437190Y-99679142D01*
X163937190Y-99679142D01*
X164437190Y-99441047D02*
X163937190Y-99441047D01*
X163937190Y-99322000D01*
X163961000Y-99250571D01*
X164008619Y-99202952D01*
X164056238Y-99179142D01*
X164151476Y-99155333D01*
X164222904Y-99155333D01*
X164318142Y-99179142D01*
X164365761Y-99202952D01*
X164413380Y-99250571D01*
X164437190Y-99322000D01*
X164437190Y-99441047D01*
X164413380Y-93813238D02*
X164437190Y-93741809D01*
X164437190Y-93622761D01*
X164413380Y-93575142D01*
X164389571Y-93551333D01*
X164341952Y-93527523D01*
X164294333Y-93527523D01*
X164246714Y-93551333D01*
X164222904Y-93575142D01*
X164199095Y-93622761D01*
X164175285Y-93718000D01*
X164151476Y-93765619D01*
X164127666Y-93789428D01*
X164080047Y-93813238D01*
X164032428Y-93813238D01*
X163984809Y-93789428D01*
X163961000Y-93765619D01*
X163937190Y-93718000D01*
X163937190Y-93598952D01*
X163961000Y-93527523D01*
X164389571Y-93027523D02*
X164413380Y-93051333D01*
X164437190Y-93122761D01*
X164437190Y-93170380D01*
X164413380Y-93241809D01*
X164365761Y-93289428D01*
X164318142Y-93313238D01*
X164222904Y-93337047D01*
X164151476Y-93337047D01*
X164056238Y-93313238D01*
X164008619Y-93289428D01*
X163961000Y-93241809D01*
X163937190Y-93170380D01*
X163937190Y-93122761D01*
X163961000Y-93051333D01*
X163984809Y-93027523D01*
X164437190Y-92575142D02*
X164437190Y-92813238D01*
X163937190Y-92813238D01*
X164413380Y-97381142D02*
X164437190Y-97309714D01*
X164437190Y-97190666D01*
X164413380Y-97143047D01*
X164389571Y-97119238D01*
X164341952Y-97095428D01*
X164294333Y-97095428D01*
X164246714Y-97119238D01*
X164222904Y-97143047D01*
X164199095Y-97190666D01*
X164175285Y-97285904D01*
X164151476Y-97333523D01*
X164127666Y-97357333D01*
X164080047Y-97381142D01*
X164032428Y-97381142D01*
X163984809Y-97357333D01*
X163961000Y-97333523D01*
X163937190Y-97285904D01*
X163937190Y-97166857D01*
X163961000Y-97095428D01*
X164437190Y-96881142D02*
X163937190Y-96881142D01*
X163937190Y-96762095D01*
X163961000Y-96690666D01*
X164008619Y-96643047D01*
X164056238Y-96619238D01*
X164151476Y-96595428D01*
X164222904Y-96595428D01*
X164318142Y-96619238D01*
X164365761Y-96643047D01*
X164413380Y-96690666D01*
X164437190Y-96762095D01*
X164437190Y-96881142D01*
X164294333Y-96404952D02*
X164294333Y-96166857D01*
X164437190Y-96452571D02*
X163937190Y-96285904D01*
X164437190Y-96119238D01*
G04 #@! TO.C,P2*
D10*
X158694380Y-91543095D02*
X157694380Y-91543095D01*
X157694380Y-91162142D01*
X157742000Y-91066904D01*
X157789619Y-91019285D01*
X157884857Y-90971666D01*
X158027714Y-90971666D01*
X158122952Y-91019285D01*
X158170571Y-91066904D01*
X158218190Y-91162142D01*
X158218190Y-91543095D01*
X157789619Y-90590714D02*
X157742000Y-90543095D01*
X157694380Y-90447857D01*
X157694380Y-90209761D01*
X157742000Y-90114523D01*
X157789619Y-90066904D01*
X157884857Y-90019285D01*
X157980095Y-90019285D01*
X158122952Y-90066904D01*
X158694380Y-90638333D01*
X158694380Y-90019285D01*
G04 #@! TO.C,U1*
X163536380Y-78866904D02*
X164345904Y-78866904D01*
X164441142Y-78819285D01*
X164488761Y-78771666D01*
X164536380Y-78676428D01*
X164536380Y-78485952D01*
X164488761Y-78390714D01*
X164441142Y-78343095D01*
X164345904Y-78295476D01*
X163536380Y-78295476D01*
X164536380Y-77295476D02*
X164536380Y-77866904D01*
X164536380Y-77581190D02*
X163536380Y-77581190D01*
X163679238Y-77676428D01*
X163774476Y-77771666D01*
X163822095Y-77866904D01*
D14*
X167366190Y-75568904D02*
X167866190Y-75402238D01*
X167366190Y-75235571D01*
X167866190Y-75068904D02*
X167532857Y-75068904D01*
X167366190Y-75068904D02*
X167390000Y-75092714D01*
X167413809Y-75068904D01*
X167390000Y-75045095D01*
X167366190Y-75068904D01*
X167413809Y-75068904D01*
X167532857Y-74830809D02*
X167866190Y-74830809D01*
X167580476Y-74830809D02*
X167556666Y-74807000D01*
X167532857Y-74759380D01*
X167532857Y-74687952D01*
X167556666Y-74640333D01*
X167604285Y-74616523D01*
X167866190Y-74616523D01*
X167390000Y-78426428D02*
X167366190Y-78474047D01*
X167366190Y-78545476D01*
X167390000Y-78616904D01*
X167437619Y-78664523D01*
X167485238Y-78688333D01*
X167580476Y-78712142D01*
X167651904Y-78712142D01*
X167747142Y-78688333D01*
X167794761Y-78664523D01*
X167842380Y-78616904D01*
X167866190Y-78545476D01*
X167866190Y-78497857D01*
X167842380Y-78426428D01*
X167818571Y-78402619D01*
X167651904Y-78402619D01*
X167651904Y-78497857D01*
X167532857Y-78188333D02*
X167866190Y-78188333D01*
X167580476Y-78188333D02*
X167556666Y-78164523D01*
X167532857Y-78116904D01*
X167532857Y-78045476D01*
X167556666Y-77997857D01*
X167604285Y-77974047D01*
X167866190Y-77974047D01*
X167866190Y-77521666D02*
X167366190Y-77521666D01*
X167842380Y-77521666D02*
X167866190Y-77569285D01*
X167866190Y-77664523D01*
X167842380Y-77712142D01*
X167818571Y-77735952D01*
X167770952Y-77759761D01*
X167628095Y-77759761D01*
X167580476Y-77735952D01*
X167556666Y-77712142D01*
X167532857Y-77664523D01*
X167532857Y-77569285D01*
X167556666Y-77521666D01*
X167866190Y-81664904D02*
X167366190Y-81664904D01*
X167866190Y-81379190D02*
X167580476Y-81593476D01*
X167366190Y-81379190D02*
X167651904Y-81664904D01*
X167866190Y-81164904D02*
X167532857Y-81164904D01*
X167366190Y-81164904D02*
X167390000Y-81188714D01*
X167413809Y-81164904D01*
X167390000Y-81141095D01*
X167366190Y-81164904D01*
X167413809Y-81164904D01*
X167866190Y-80855380D02*
X167842380Y-80903000D01*
X167794761Y-80926809D01*
X167366190Y-80926809D01*
X167866190Y-80593476D02*
X167842380Y-80641095D01*
X167794761Y-80664904D01*
X167366190Y-80664904D01*
G04 #@! TO.C,IC1*
D10*
X139517380Y-97496190D02*
X138517380Y-97496190D01*
X139422142Y-96448571D02*
X139469761Y-96496190D01*
X139517380Y-96639047D01*
X139517380Y-96734285D01*
X139469761Y-96877142D01*
X139374523Y-96972380D01*
X139279285Y-97020000D01*
X139088809Y-97067619D01*
X138945952Y-97067619D01*
X138755476Y-97020000D01*
X138660238Y-96972380D01*
X138565000Y-96877142D01*
X138517380Y-96734285D01*
X138517380Y-96639047D01*
X138565000Y-96496190D01*
X138612619Y-96448571D01*
X139517380Y-95496190D02*
X139517380Y-96067619D01*
X139517380Y-95781904D02*
X138517380Y-95781904D01*
X138660238Y-95877142D01*
X138755476Y-95972380D01*
X138803095Y-96067619D01*
G04 #@! TO.C,U2*
D15*
X165128055Y-90592203D02*
X165387139Y-90592203D01*
X165417619Y-90576963D01*
X165432860Y-90561723D01*
X165448100Y-90531242D01*
X165448100Y-90470281D01*
X165432860Y-90439801D01*
X165417619Y-90424561D01*
X165387139Y-90409320D01*
X165128055Y-90409320D01*
X165158535Y-90272158D02*
X165143295Y-90256918D01*
X165128055Y-90226438D01*
X165128055Y-90150236D01*
X165143295Y-90119756D01*
X165158535Y-90104516D01*
X165189016Y-90089275D01*
X165219496Y-90089275D01*
X165265217Y-90104516D01*
X165448100Y-90287399D01*
X165448100Y-90089275D01*
G04 #@! TO.C,P1*
D10*
X148534380Y-91543095D02*
X147534380Y-91543095D01*
X147534380Y-91162142D01*
X147582000Y-91066904D01*
X147629619Y-91019285D01*
X147724857Y-90971666D01*
X147867714Y-90971666D01*
X147962952Y-91019285D01*
X148010571Y-91066904D01*
X148058190Y-91162142D01*
X148058190Y-91543095D01*
X148534380Y-90019285D02*
X148534380Y-90590714D01*
X148534380Y-90305000D02*
X147534380Y-90305000D01*
X147677238Y-90400238D01*
X147772476Y-90495476D01*
X147820095Y-90590714D01*
G04 #@! TO.C,D1*
X164361904Y-57729380D02*
X164361904Y-56729380D01*
X164600000Y-56729380D01*
X164742857Y-56777000D01*
X164838095Y-56872238D01*
X164885714Y-56967476D01*
X164933333Y-57157952D01*
X164933333Y-57300809D01*
X164885714Y-57491285D01*
X164838095Y-57586523D01*
X164742857Y-57681761D01*
X164600000Y-57729380D01*
X164361904Y-57729380D01*
X165885714Y-57729380D02*
X165314285Y-57729380D01*
X165600000Y-57729380D02*
X165600000Y-56729380D01*
X165504761Y-56872238D01*
X165409523Y-56967476D01*
X165314285Y-57015095D01*
G04 #@! TO.C,D2*
X156233904Y-57729380D02*
X156233904Y-56729380D01*
X156472000Y-56729380D01*
X156614857Y-56777000D01*
X156710095Y-56872238D01*
X156757714Y-56967476D01*
X156805333Y-57157952D01*
X156805333Y-57300809D01*
X156757714Y-57491285D01*
X156710095Y-57586523D01*
X156614857Y-57681761D01*
X156472000Y-57729380D01*
X156233904Y-57729380D01*
X157186285Y-56824619D02*
X157233904Y-56777000D01*
X157329142Y-56729380D01*
X157567238Y-56729380D01*
X157662476Y-56777000D01*
X157710095Y-56824619D01*
X157757714Y-56919857D01*
X157757714Y-57015095D01*
X157710095Y-57157952D01*
X157138666Y-57729380D01*
X157757714Y-57729380D01*
G04 #@! TO.C,D3*
X148613904Y-57729380D02*
X148613904Y-56729380D01*
X148852000Y-56729380D01*
X148994857Y-56777000D01*
X149090095Y-56872238D01*
X149137714Y-56967476D01*
X149185333Y-57157952D01*
X149185333Y-57300809D01*
X149137714Y-57491285D01*
X149090095Y-57586523D01*
X148994857Y-57681761D01*
X148852000Y-57729380D01*
X148613904Y-57729380D01*
X149518666Y-56729380D02*
X150137714Y-56729380D01*
X149804380Y-57110333D01*
X149947238Y-57110333D01*
X150042476Y-57157952D01*
X150090095Y-57205571D01*
X150137714Y-57300809D01*
X150137714Y-57538904D01*
X150090095Y-57634142D01*
X150042476Y-57681761D01*
X149947238Y-57729380D01*
X149661523Y-57729380D01*
X149566285Y-57681761D01*
X149518666Y-57634142D01*
G04 #@! TO.C,D4*
X140993904Y-57729380D02*
X140993904Y-56729380D01*
X141232000Y-56729380D01*
X141374857Y-56777000D01*
X141470095Y-56872238D01*
X141517714Y-56967476D01*
X141565333Y-57157952D01*
X141565333Y-57300809D01*
X141517714Y-57491285D01*
X141470095Y-57586523D01*
X141374857Y-57681761D01*
X141232000Y-57729380D01*
X140993904Y-57729380D01*
X142422476Y-57062714D02*
X142422476Y-57729380D01*
X142184380Y-56681761D02*
X141946285Y-57396047D01*
X142565333Y-57396047D01*
G04 #@! TO.C,R1*
X165664380Y-68873666D02*
X165188190Y-69207000D01*
X165664380Y-69445095D02*
X164664380Y-69445095D01*
X164664380Y-69064142D01*
X164712000Y-68968904D01*
X164759619Y-68921285D01*
X164854857Y-68873666D01*
X164997714Y-68873666D01*
X165092952Y-68921285D01*
X165140571Y-68968904D01*
X165188190Y-69064142D01*
X165188190Y-69445095D01*
X165664380Y-67921285D02*
X165664380Y-68492714D01*
X165664380Y-68207000D02*
X164664380Y-68207000D01*
X164807238Y-68302238D01*
X164902476Y-68397476D01*
X164950095Y-68492714D01*
G04 #@! TO.C,R2*
X157361409Y-67392337D02*
X156834639Y-67146611D01*
X156866538Y-67678052D02*
X156366538Y-66812026D01*
X156696452Y-66621550D01*
X156802740Y-66615170D01*
X156867789Y-66632600D01*
X156956648Y-66691269D01*
X157028076Y-66814987D01*
X157034456Y-66921275D01*
X157017026Y-66986324D01*
X156958357Y-67075182D01*
X156628443Y-67265658D01*
X157238943Y-66418314D02*
X157256373Y-66353265D01*
X157315042Y-66264407D01*
X157521238Y-66145359D01*
X157627526Y-66138980D01*
X157692575Y-66156409D01*
X157781434Y-66215079D01*
X157829053Y-66297557D01*
X157859242Y-66445085D01*
X157650085Y-67225671D01*
X158186196Y-66916147D01*
G04 #@! TO.C,R3*
X148219471Y-66983440D02*
X148168892Y-66404380D01*
X147724600Y-66697725D02*
X148224600Y-65831700D01*
X148554514Y-66022176D01*
X148613183Y-66111034D01*
X148630613Y-66176083D01*
X148624233Y-66282371D01*
X148552805Y-66406089D01*
X148463946Y-66464758D01*
X148398898Y-66482188D01*
X148292609Y-66475808D01*
X147962695Y-66285332D01*
X149008147Y-66284081D02*
X149544258Y-66593605D01*
X149065106Y-66756852D01*
X149188824Y-66828281D01*
X149247493Y-66917139D01*
X149264923Y-66982188D01*
X149258543Y-67088476D01*
X149139496Y-67294673D01*
X149050637Y-67353342D01*
X148985588Y-67370772D01*
X148879300Y-67364392D01*
X148631865Y-67221535D01*
X148573195Y-67132676D01*
X148555766Y-67067628D01*
G04 #@! TO.C,R4*
X142184380Y-68873666D02*
X141708190Y-69207000D01*
X142184380Y-69445095D02*
X141184380Y-69445095D01*
X141184380Y-69064142D01*
X141232000Y-68968904D01*
X141279619Y-68921285D01*
X141374857Y-68873666D01*
X141517714Y-68873666D01*
X141612952Y-68921285D01*
X141660571Y-68968904D01*
X141708190Y-69064142D01*
X141708190Y-69445095D01*
X141517714Y-68016523D02*
X142184380Y-68016523D01*
X141136761Y-68254619D02*
X141851047Y-68492714D01*
X141851047Y-67873666D01*
G04 #@! TD*
M02*
