G04 #@! TF.GenerationSoftware,KiCad,Pcbnew,(5.0.2)-1*
G04 #@! TF.CreationDate,2019-02-17T11:04:42-05:00*
G04 #@! TF.ProjectId,main,6d61696e-2e6b-4696-9361-645f70636258,rev?*
G04 #@! TF.SameCoordinates,Original*
G04 #@! TF.FileFunction,Copper,L1,Top*
G04 #@! TF.FilePolarity,Positive*
%FSLAX46Y46*%
G04 Gerber Fmt 4.6, Leading zero omitted, Abs format (unit mm)*
G04 Created by KiCad (PCBNEW (5.0.2)-1) date 2019-02-17 11:04:42 AM*
%MOMM*%
%LPD*%
G01*
G04 APERTURE LIST*
G04 #@! TA.AperFunction,ComponentPad*
%ADD10R,1.998980X1.998980*%
G04 #@! TD*
G04 #@! TA.AperFunction,ComponentPad*
%ADD11C,1.998980*%
G04 #@! TD*
G04 #@! TA.AperFunction,ComponentPad*
%ADD12O,2.032000X1.727200*%
G04 #@! TD*
G04 #@! TA.AperFunction,ComponentPad*
%ADD13O,1.050000X1.500000*%
G04 #@! TD*
G04 #@! TA.AperFunction,ComponentPad*
%ADD14R,1.050000X1.500000*%
G04 #@! TD*
G04 #@! TA.AperFunction,ComponentPad*
%ADD15C,1.879600*%
G04 #@! TD*
G04 #@! TA.AperFunction,ComponentPad*
%ADD16C,2.540000*%
G04 #@! TD*
G04 #@! TA.AperFunction,ComponentPad*
%ADD17C,1.600000*%
G04 #@! TD*
G04 #@! TA.AperFunction,ComponentPad*
%ADD18R,1.800000X1.800000*%
G04 #@! TD*
G04 #@! TA.AperFunction,ComponentPad*
%ADD19C,1.800000*%
G04 #@! TD*
G04 #@! TA.AperFunction,ComponentPad*
%ADD20R,2.200000X2.200000*%
G04 #@! TD*
G04 #@! TA.AperFunction,ComponentPad*
%ADD21O,2.200000X2.200000*%
G04 #@! TD*
G04 #@! TA.AperFunction,ComponentPad*
%ADD22O,1.800000X1.800000*%
G04 #@! TD*
G04 #@! TA.AperFunction,Conductor*
%ADD23C,1.800000*%
G04 #@! TD*
G04 #@! TA.AperFunction,ComponentPad*
%ADD24C,1.400000*%
G04 #@! TD*
G04 #@! TA.AperFunction,ComponentPad*
%ADD25O,1.400000X1.400000*%
G04 #@! TD*
G04 #@! TA.AperFunction,Conductor*
%ADD26C,0.440000*%
G04 #@! TD*
G04 APERTURE END LIST*
D10*
G04 #@! TO.P,U3,14*
G04 #@! TO.N,+3V3*
X165735000Y-102870000D03*
D11*
G04 #@! TO.P,U3,5*
G04 #@! TO.N,GND*
X165735000Y-99695000D03*
G04 #@! TO.P,U3,6*
G04 #@! TO.N,/A4*
X165735000Y-96520000D03*
G04 #@! TO.P,U3,4*
G04 #@! TO.N,/A5*
X165735000Y-93345000D03*
G04 #@! TD*
D12*
G04 #@! TO.P,P2,1*
G04 #@! TO.N,/Vin*
X160782000Y-73152000D03*
G04 #@! TO.P,P2,2*
G04 #@! TO.N,GND*
X160782000Y-75692000D03*
G04 #@! TO.P,P2,3*
G04 #@! TO.N,/Reset*
X160782000Y-78232000D03*
G04 #@! TO.P,P2,4*
G04 #@! TO.N,+5V*
X160782000Y-80772000D03*
G04 #@! TO.P,P2,5*
G04 #@! TO.N,/A7*
X160782000Y-83312000D03*
G04 #@! TO.P,P2,6*
G04 #@! TO.N,/A6*
X160782000Y-85852000D03*
G04 #@! TO.P,P2,7*
G04 #@! TO.N,/A5*
X160782000Y-88392000D03*
G04 #@! TO.P,P2,8*
G04 #@! TO.N,/A4*
X160782000Y-90932000D03*
G04 #@! TO.P,P2,9*
G04 #@! TO.N,/A3*
X160782000Y-93472000D03*
G04 #@! TO.P,P2,10*
G04 #@! TO.N,/A2*
X160782000Y-96012000D03*
G04 #@! TO.P,P2,11*
G04 #@! TO.N,/A1*
X160782000Y-98552000D03*
G04 #@! TO.P,P2,12*
G04 #@! TO.N,/A0*
X160782000Y-101092000D03*
G04 #@! TO.P,P2,13*
G04 #@! TO.N,/AREF*
X160782000Y-103632000D03*
G04 #@! TO.P,P2,14*
G04 #@! TO.N,+3V3*
X160782000Y-106172000D03*
G04 #@! TO.P,P2,15*
G04 #@! TO.N,/13(SCK)*
X160782000Y-108712000D03*
G04 #@! TD*
D13*
G04 #@! TO.P,Q1,2*
G04 #@! TO.N,Net-(Q1-Pad2)*
X153670000Y-97790000D03*
G04 #@! TO.P,Q1,3*
G04 #@! TO.N,Net-(C1-Pad2)*
X154940000Y-97790000D03*
D14*
G04 #@! TO.P,Q1,1*
G04 #@! TO.N,GND*
X152400000Y-97790000D03*
G04 #@! TD*
D11*
G04 #@! TO.P,U1,3*
G04 #@! TO.N,GND*
X166116000Y-78232000D03*
G04 #@! TO.P,U1,4*
G04 #@! TO.N,/A3*
X166116000Y-81407000D03*
G04 #@! TO.P,U1,2*
G04 #@! TO.N,/Vin*
X166116000Y-75184000D03*
G04 #@! TD*
D10*
G04 #@! TO.P,IC1,6*
G04 #@! TO.N,/3(\002A\002A)*
X141224000Y-93345000D03*
D11*
G04 #@! TO.P,IC1,2*
G04 #@! TO.N,/2*
X141224000Y-96520000D03*
G04 #@! TO.P,IC1,7*
G04 #@! TO.N,GND*
X141224000Y-99695000D03*
G04 #@! TD*
D15*
G04 #@! TO.P,U2,3*
G04 #@! TO.N,GND*
X164465000Y-87630000D03*
G04 #@! TO.P,U2,2*
G04 #@! TO.N,/A6*
X166370000Y-86360000D03*
G04 #@! TO.P,U2,1*
G04 #@! TO.N,+5V*
X164465000Y-85090000D03*
G04 #@! TD*
D12*
G04 #@! TO.P,P1,1*
G04 #@! TO.N,/1(Tx)*
X145542000Y-73152000D03*
G04 #@! TO.P,P1,2*
G04 #@! TO.N,/0(Rx)*
X145542000Y-75692000D03*
G04 #@! TO.P,P1,3*
G04 #@! TO.N,/Reset*
X145542000Y-78232000D03*
G04 #@! TO.P,P1,4*
G04 #@! TO.N,GND*
X145542000Y-80772000D03*
G04 #@! TO.P,P1,5*
G04 #@! TO.N,/2*
X145542000Y-83312000D03*
G04 #@! TO.P,P1,6*
G04 #@! TO.N,/3(\002A\002A)*
X145542000Y-85852000D03*
G04 #@! TO.P,P1,7*
G04 #@! TO.N,/4*
X145542000Y-88392000D03*
G04 #@! TO.P,P1,8*
G04 #@! TO.N,/5(\002A\002A)*
X145542000Y-90932000D03*
G04 #@! TO.P,P1,9*
G04 #@! TO.N,/6(\002A\002A)*
X145542000Y-93472000D03*
G04 #@! TO.P,P1,10*
G04 #@! TO.N,/7*
X145542000Y-96012000D03*
G04 #@! TO.P,P1,11*
G04 #@! TO.N,/8*
X145542000Y-98552000D03*
G04 #@! TO.P,P1,12*
G04 #@! TO.N,/9(\002A\002A)*
X145542000Y-101092000D03*
G04 #@! TO.P,P1,13*
G04 #@! TO.N,/10(\002A\002A/SS)*
X145542000Y-103632000D03*
G04 #@! TO.P,P1,14*
G04 #@! TO.N,/11(\002A\002A/MOSI)*
X145542000Y-106172000D03*
G04 #@! TO.P,P1,15*
G04 #@! TO.N,/12(MISO)*
X145542000Y-108712000D03*
G04 #@! TD*
D16*
G04 #@! TO.P,P3,1*
G04 #@! TO.N,Net-(P3-Pad1)*
X145542000Y-57150000D03*
G04 #@! TD*
G04 #@! TO.P,P4,1*
G04 #@! TO.N,Net-(P4-Pad1)*
X139700000Y-109093000D03*
G04 #@! TD*
G04 #@! TO.P,P5,1*
G04 #@! TO.N,Net-(P5-Pad1)*
X167132000Y-109093000D03*
G04 #@! TD*
G04 #@! TO.P,P6,1*
G04 #@! TO.N,Net-(P6-Pad1)*
X160782000Y-57150000D03*
G04 #@! TD*
D17*
G04 #@! TO.P,C1,1*
G04 #@! TO.N,/A2*
X154432000Y-81915000D03*
G04 #@! TO.P,C1,2*
G04 #@! TO.N,Net-(C1-Pad2)*
X151932000Y-81915000D03*
G04 #@! TD*
D18*
G04 #@! TO.P,D1,1*
G04 #@! TO.N,GND*
X165100000Y-59309000D03*
D19*
G04 #@! TO.P,D1,2*
G04 #@! TO.N,Net-(D1-Pad2)*
X165100000Y-61849000D03*
G04 #@! TD*
G04 #@! TO.P,D2,2*
G04 #@! TO.N,Net-(D2-Pad2)*
X156972000Y-61849000D03*
D18*
G04 #@! TO.P,D2,1*
G04 #@! TO.N,GND*
X156972000Y-59309000D03*
G04 #@! TD*
G04 #@! TO.P,D3,1*
G04 #@! TO.N,GND*
X149352000Y-59309000D03*
D19*
G04 #@! TO.P,D3,2*
G04 #@! TO.N,Net-(D3-Pad2)*
X149352000Y-61849000D03*
G04 #@! TD*
G04 #@! TO.P,D4,2*
G04 #@! TO.N,Net-(D4-Pad2)*
X141732000Y-61849000D03*
D18*
G04 #@! TO.P,D4,1*
G04 #@! TO.N,GND*
X141732000Y-59309000D03*
G04 #@! TD*
D20*
G04 #@! TO.P,D5,1*
G04 #@! TO.N,/A2*
X158115000Y-88265000D03*
D21*
G04 #@! TO.P,D5,2*
G04 #@! TO.N,Net-(C1-Pad2)*
X147955000Y-88265000D03*
G04 #@! TD*
D10*
G04 #@! TO.P,M1,1*
G04 #@! TO.N,/A2*
X154940000Y-76581000D03*
D11*
G04 #@! TO.P,M1,2*
G04 #@! TO.N,Net-(C1-Pad2)*
X151130000Y-76581000D03*
G04 #@! TD*
D22*
G04 #@! TO.P,R1,2*
G04 #@! TO.N,Net-(D1-Pad2)*
X167132000Y-64897000D03*
D19*
G04 #@! TO.P,R1,1*
G04 #@! TO.N,/Vin*
X167132000Y-72517000D03*
G04 #@! TD*
G04 #@! TO.P,R2,1*
G04 #@! TO.N,/A2*
X154940000Y-70485000D03*
G04 #@! TO.P,R2,2*
G04 #@! TO.N,Net-(D2-Pad2)*
X161539114Y-66675000D03*
D23*
G04 #@! TD*
G04 #@! TO.N,Net-(D2-Pad2)*
G04 #@! TO.C,R2*
X161539114Y-66675000D02*
X161539114Y-66675000D01*
D19*
G04 #@! TO.P,R3,2*
G04 #@! TO.N,Net-(D3-Pad2)*
X144276886Y-66675000D03*
D23*
G04 #@! TD*
G04 #@! TO.N,Net-(D3-Pad2)*
G04 #@! TO.C,R3*
X144276886Y-66675000D02*
X144276886Y-66675000D01*
D19*
G04 #@! TO.P,R3,1*
G04 #@! TO.N,/2*
X150876000Y-70485000D03*
D23*
G04 #@! TD*
G04 #@! TO.N,/2*
G04 #@! TO.C,R3*
X150876000Y-70485000D02*
X150876000Y-70485000D01*
D22*
G04 #@! TO.P,R4,1*
G04 #@! TO.N,/8*
X139700000Y-72517000D03*
D19*
G04 #@! TO.P,R4,2*
G04 #@! TO.N,Net-(D4-Pad2)*
X139700000Y-64897000D03*
G04 #@! TD*
D24*
G04 #@! TO.P,R5,1*
G04 #@! TO.N,/7*
X149860000Y-102235000D03*
D25*
G04 #@! TO.P,R5,2*
G04 #@! TO.N,Net-(Q1-Pad2)*
X157480000Y-102235000D03*
G04 #@! TD*
D26*
G04 #@! TO.N,/2*
X149886051Y-73025000D02*
X147955000Y-74956051D01*
X149886051Y-71474949D02*
X150876000Y-70485000D01*
X149886051Y-73025000D02*
X149886051Y-71474949D01*
X147955000Y-82355000D02*
X147955000Y-80645000D01*
X146998000Y-83312000D02*
X147955000Y-82355000D01*
X145542000Y-83312000D02*
X146998000Y-83312000D01*
X147955000Y-74956051D02*
X147955000Y-80645000D01*
X147955000Y-80645000D02*
X147955000Y-81051400D01*
X139065000Y-94361000D02*
X141224000Y-96520000D01*
X139065000Y-87630000D02*
X139065000Y-94361000D01*
X145542000Y-83312000D02*
X143383000Y-83312000D01*
X143383000Y-83312000D02*
X139065000Y-87630000D01*
G04 #@! TO.N,/7*
X145669000Y-95885000D02*
X145542000Y-96012000D01*
X147447000Y-96012000D02*
X145542000Y-96012000D01*
X149860000Y-102235000D02*
X149860000Y-98425000D01*
X149860000Y-98425000D02*
X147447000Y-96012000D01*
G04 #@! TO.N,/Vin*
X164084000Y-73152000D02*
X166116000Y-75184000D01*
X160782000Y-73152000D02*
X164084000Y-73152000D01*
X167132000Y-74168000D02*
X166116000Y-75184000D01*
X167132000Y-72517000D02*
X167132000Y-74168000D01*
G04 #@! TO.N,+5V*
X164465000Y-83253000D02*
X164465000Y-85090000D01*
X160782000Y-80772000D02*
X162687000Y-80772000D01*
X162687000Y-80772000D02*
X164465000Y-82550000D01*
X164465000Y-82550000D02*
X164465000Y-83253000D01*
G04 #@! TO.N,/A6*
X162560000Y-86174000D02*
X162560000Y-88265000D01*
X162560000Y-88265000D02*
X164465000Y-90170000D01*
X164465000Y-90170000D02*
X165735000Y-90170000D01*
X166370000Y-89535000D02*
X166370000Y-86360000D01*
X165735000Y-90170000D02*
X166370000Y-89535000D01*
X162238000Y-85852000D02*
X160782000Y-85852000D01*
X162560000Y-86174000D02*
X162238000Y-85852000D01*
G04 #@! TO.N,/A5*
X160782000Y-88392000D02*
X160934400Y-88392000D01*
X160782000Y-88392000D02*
X165735000Y-93345000D01*
G04 #@! TO.N,/A4*
X160782000Y-90932000D02*
X160629600Y-90932000D01*
X160629600Y-90932000D02*
X160121600Y-91440000D01*
X160934400Y-90932000D02*
X163195000Y-93192600D01*
X160782000Y-90932000D02*
X160934400Y-90932000D01*
X163195000Y-93980000D02*
X165735000Y-96520000D01*
X163195000Y-93192600D02*
X163195000Y-93980000D01*
G04 #@! TO.N,/A2*
X154940000Y-73025000D02*
X154940000Y-76581000D01*
X154940000Y-73025000D02*
X154940000Y-70485000D01*
X160629600Y-96012000D02*
X160782000Y-96012000D01*
X157988000Y-93370400D02*
X160629600Y-96012000D01*
X158115000Y-93243400D02*
X158115000Y-88265000D01*
X157988000Y-93370400D02*
X158115000Y-93243400D01*
X154432000Y-77089000D02*
X154940000Y-76581000D01*
X154432000Y-81915000D02*
X154432000Y-77089000D01*
X156374999Y-82714999D02*
X158115000Y-84455000D01*
X155231999Y-82714999D02*
X156374999Y-82714999D01*
X154432000Y-81915000D02*
X155231999Y-82714999D01*
X158115000Y-84455000D02*
X158115000Y-88265000D01*
G04 #@! TO.N,+3V3*
X165735000Y-104309490D02*
X165735000Y-102870000D01*
X163872490Y-106172000D02*
X165735000Y-104309490D01*
X160782000Y-106172000D02*
X163872490Y-106172000D01*
G04 #@! TO.N,Net-(C1-Pad2)*
X151932000Y-82383000D02*
X151932000Y-80645000D01*
X151932000Y-77383000D02*
X151130000Y-76581000D01*
X151932000Y-80645000D02*
X151932000Y-77383000D01*
X149606000Y-84709000D02*
X149860000Y-84455000D01*
X149860000Y-84455000D02*
X151932000Y-82383000D01*
X148927999Y-89364999D02*
X151594999Y-89364999D01*
X154940000Y-92710000D02*
X154940000Y-95250000D01*
X151594999Y-89364999D02*
X154940000Y-92710000D01*
X154940000Y-95250000D02*
X154940000Y-97790000D01*
X148927999Y-87292001D02*
X147955000Y-88265000D01*
X149860000Y-84455000D02*
X148927999Y-85387001D01*
X148927999Y-85387001D02*
X148927999Y-87292001D01*
X147955000Y-88392000D02*
X148927999Y-89364999D01*
X147955000Y-88265000D02*
X147955000Y-88392000D01*
G04 #@! TO.N,Net-(D1-Pad2)*
X167132000Y-63881000D02*
X165100000Y-61849000D01*
X167132000Y-64897000D02*
X167132000Y-63881000D01*
G04 #@! TO.N,Net-(D2-Pad2)*
X156972000Y-64262000D02*
X156972000Y-61849000D01*
X161539114Y-66675000D02*
X159385000Y-66675000D01*
X159385000Y-66675000D02*
X156972000Y-64262000D01*
G04 #@! TO.N,Net-(D3-Pad2)*
X149352000Y-64008000D02*
X149352000Y-61849000D01*
X144276886Y-66675000D02*
X146685000Y-66675000D01*
X146685000Y-66675000D02*
X149352000Y-64008000D01*
G04 #@! TO.N,Net-(D4-Pad2)*
X139700000Y-64897000D02*
X141732000Y-62865000D01*
X141732000Y-62865000D02*
X141732000Y-61849000D01*
G04 #@! TO.N,Net-(Q1-Pad2)*
X156925000Y-102235000D02*
X157480000Y-102235000D01*
X153670000Y-98980000D02*
X156925000Y-102235000D01*
X153670000Y-97790000D02*
X153670000Y-98980000D01*
G04 #@! TD*
M02*
