G04 #@! TF.GenerationSoftware,KiCad,Pcbnew,(5.0.2)-1*
G04 #@! TF.CreationDate,2019-02-04T22:04:25-05:00*
G04 #@! TF.ProjectId,main,6d61696e-2e6b-4696-9361-645f70636258,rev?*
G04 #@! TF.SameCoordinates,Original*
G04 #@! TF.FileFunction,Legend,Top*
G04 #@! TF.FilePolarity,Positive*
%FSLAX46Y46*%
G04 Gerber Fmt 4.6, Leading zero omitted, Abs format (unit mm)*
G04 Created by KiCad (PCBNEW (5.0.2)-1) date 2019-02-04 10:04:25 PM*
%MOMM*%
%LPD*%
G01*
G04 APERTURE LIST*
%ADD10C,0.150000*%
%ADD11C,0.203200*%
%ADD12C,0.120000*%
%ADD13C,0.125000*%
%ADD14C,0.065000*%
%ADD15C,0.050000*%
G04 APERTURE END LIST*
D10*
X148113714Y-73604380D02*
X147542285Y-73604380D01*
X147828000Y-73604380D02*
X147828000Y-72604380D01*
X147732761Y-72747238D01*
X147637523Y-72842476D01*
X147542285Y-72890095D01*
D11*
G04 #@! TO.C,U2*
X162944622Y-87691551D02*
G75*
G02X167140500Y-89002700I1647375J-2097448D01*
G01*
X167140400Y-90575299D02*
G75*
G02X162941000Y-91883500I-2548411J786287D01*
G01*
X162941000Y-87694500D02*
X162941000Y-91883500D01*
X164338000Y-87134100D02*
X164338000Y-87535300D01*
X164338000Y-89502700D02*
X164338000Y-90075300D01*
X164338000Y-92042700D02*
X164338000Y-92443900D01*
D10*
G04 #@! TO.C,P1*
X146812000Y-74422000D02*
X146812000Y-71882000D01*
X146812000Y-71882000D02*
X144272000Y-71882000D01*
X144272000Y-71882000D02*
X144272000Y-74422000D01*
X146812000Y-74422000D02*
X146812000Y-109982000D01*
X146812000Y-109982000D02*
X144272000Y-109982000D01*
X144272000Y-109982000D02*
X144272000Y-74422000D01*
X144272000Y-74422000D02*
X146812000Y-74422000D01*
G04 #@! TO.C,P2*
X162052000Y-74422000D02*
X162052000Y-71882000D01*
X162052000Y-71882000D02*
X159512000Y-71882000D01*
X159512000Y-71882000D02*
X159512000Y-74422000D01*
X162052000Y-74422000D02*
X162052000Y-109982000D01*
X162052000Y-109982000D02*
X159512000Y-109982000D01*
X159512000Y-109982000D02*
X159512000Y-74422000D01*
X159512000Y-74422000D02*
X162052000Y-74422000D01*
D12*
G04 #@! TO.C,C1*
X155802000Y-82015000D02*
X150562000Y-82015000D01*
X155802000Y-79275000D02*
X150562000Y-79275000D01*
X155802000Y-82015000D02*
X155802000Y-79275000D01*
X150562000Y-82015000D02*
X150562000Y-79275000D01*
G04 #@! TO.C,D1*
X165099538Y-63569000D02*
G75*
G03X166644830Y-58019000I462J2990000D01*
G01*
X165100462Y-63569000D02*
G75*
G02X163555170Y-58019000I-462J2990000D01*
G01*
X167600000Y-60579000D02*
G75*
G03X167600000Y-60579000I-2500000J0D01*
G01*
X166645000Y-58019000D02*
X163555000Y-58019000D01*
G04 #@! TO.C,D2*
X158517000Y-58019000D02*
X155427000Y-58019000D01*
X159472000Y-60579000D02*
G75*
G03X159472000Y-60579000I-2500000J0D01*
G01*
X156972462Y-63569000D02*
G75*
G02X155427170Y-58019000I-462J2990000D01*
G01*
X156971538Y-63569000D02*
G75*
G03X158516830Y-58019000I462J2990000D01*
G01*
G04 #@! TO.C,D3*
X149351538Y-63569000D02*
G75*
G03X150896830Y-58019000I462J2990000D01*
G01*
X149352462Y-63569000D02*
G75*
G02X147807170Y-58019000I-462J2990000D01*
G01*
X151852000Y-60579000D02*
G75*
G03X151852000Y-60579000I-2500000J0D01*
G01*
X150897000Y-58019000D02*
X147807000Y-58019000D01*
G04 #@! TO.C,D4*
X143277000Y-58019000D02*
X140187000Y-58019000D01*
X144232000Y-60579000D02*
G75*
G03X144232000Y-60579000I-2500000J0D01*
G01*
X141732462Y-63569000D02*
G75*
G02X140187170Y-58019000I-462J2990000D01*
G01*
X141731538Y-63569000D02*
G75*
G03X143276830Y-58019000I462J2990000D01*
G01*
G04 #@! TO.C,D5*
X155628000Y-86179000D02*
X155628000Y-83239000D01*
X155628000Y-83239000D02*
X150188000Y-83239000D01*
X150188000Y-83239000D02*
X150188000Y-86179000D01*
X150188000Y-86179000D02*
X155628000Y-86179000D01*
X156648000Y-84709000D02*
X155628000Y-84709000D01*
X149168000Y-84709000D02*
X150188000Y-84709000D01*
X154728000Y-86179000D02*
X154728000Y-83239000D01*
X154608000Y-86179000D02*
X154608000Y-83239000D01*
X154848000Y-86179000D02*
X154848000Y-83239000D01*
G04 #@! TO.C,Q1*
X151870000Y-92655000D02*
X155470000Y-92655000D01*
X151831522Y-92643478D02*
G75*
G02X153670000Y-88205000I1838478J1838478D01*
G01*
X155508478Y-92643478D02*
G75*
G03X153670000Y-88205000I-1838478J1838478D01*
G01*
G04 #@! TO.C,R1*
X167132000Y-65837000D02*
X167132000Y-66787000D01*
X167132000Y-71577000D02*
X167132000Y-70627000D01*
X166212000Y-66787000D02*
X166212000Y-70627000D01*
X168052000Y-66787000D02*
X166212000Y-66787000D01*
X168052000Y-70627000D02*
X168052000Y-66787000D01*
X166212000Y-70627000D02*
X168052000Y-70627000D01*
G04 #@! TO.C,R2*
X154020000Y-71135000D02*
X155860000Y-71135000D01*
X155860000Y-71135000D02*
X155860000Y-67295000D01*
X155860000Y-67295000D02*
X154020000Y-67295000D01*
X154020000Y-67295000D02*
X154020000Y-71135000D01*
X154940000Y-72085000D02*
X154940000Y-71135000D01*
X154940000Y-66345000D02*
X154940000Y-67295000D01*
G04 #@! TO.C,R3*
X150876000Y-66345000D02*
X150876000Y-67295000D01*
X150876000Y-72085000D02*
X150876000Y-71135000D01*
X149956000Y-67295000D02*
X149956000Y-71135000D01*
X151796000Y-67295000D02*
X149956000Y-67295000D01*
X151796000Y-71135000D02*
X151796000Y-67295000D01*
X149956000Y-71135000D02*
X151796000Y-71135000D01*
G04 #@! TO.C,R4*
X138780000Y-70627000D02*
X140620000Y-70627000D01*
X140620000Y-70627000D02*
X140620000Y-66787000D01*
X140620000Y-66787000D02*
X138780000Y-66787000D01*
X138780000Y-66787000D02*
X138780000Y-70627000D01*
X139700000Y-71577000D02*
X139700000Y-70627000D01*
X139700000Y-65837000D02*
X139700000Y-66787000D01*
G04 #@! TO.C,R5*
X151750000Y-94965000D02*
X151750000Y-96805000D01*
X151750000Y-96805000D02*
X155590000Y-96805000D01*
X155590000Y-96805000D02*
X155590000Y-94965000D01*
X155590000Y-94965000D02*
X151750000Y-94965000D01*
X150800000Y-95885000D02*
X151750000Y-95885000D01*
X156540000Y-95885000D02*
X155590000Y-95885000D01*
G04 #@! TO.C,U3*
D10*
X163282380Y-101409404D02*
X164091904Y-101409404D01*
X164187142Y-101361785D01*
X164234761Y-101314166D01*
X164282380Y-101218928D01*
X164282380Y-101028452D01*
X164234761Y-100933214D01*
X164187142Y-100885595D01*
X164091904Y-100837976D01*
X163282380Y-100837976D01*
X163282380Y-100457023D02*
X163282380Y-99837976D01*
X163663333Y-100171309D01*
X163663333Y-100028452D01*
X163710952Y-99933214D01*
X163758571Y-99885595D01*
X163853809Y-99837976D01*
X164091904Y-99837976D01*
X164187142Y-99885595D01*
X164234761Y-99933214D01*
X164282380Y-100028452D01*
X164282380Y-100314166D01*
X164234761Y-100409404D01*
X164187142Y-100457023D01*
D13*
X165207190Y-105921904D02*
X165707190Y-105755238D01*
X165207190Y-105588571D01*
X165707190Y-105421904D02*
X165373857Y-105421904D01*
X165207190Y-105421904D02*
X165231000Y-105445714D01*
X165254809Y-105421904D01*
X165231000Y-105398095D01*
X165207190Y-105421904D01*
X165254809Y-105421904D01*
X165373857Y-105183809D02*
X165707190Y-105183809D01*
X165421476Y-105183809D02*
X165397666Y-105160000D01*
X165373857Y-105112380D01*
X165373857Y-105040952D01*
X165397666Y-104993333D01*
X165445285Y-104969523D01*
X165707190Y-104969523D01*
X165231000Y-102742952D02*
X165207190Y-102790571D01*
X165207190Y-102862000D01*
X165231000Y-102933428D01*
X165278619Y-102981047D01*
X165326238Y-103004857D01*
X165421476Y-103028666D01*
X165492904Y-103028666D01*
X165588142Y-103004857D01*
X165635761Y-102981047D01*
X165683380Y-102933428D01*
X165707190Y-102862000D01*
X165707190Y-102814380D01*
X165683380Y-102742952D01*
X165659571Y-102719142D01*
X165492904Y-102719142D01*
X165492904Y-102814380D01*
X165707190Y-102504857D02*
X165207190Y-102504857D01*
X165707190Y-102219142D01*
X165207190Y-102219142D01*
X165707190Y-101981047D02*
X165207190Y-101981047D01*
X165207190Y-101862000D01*
X165231000Y-101790571D01*
X165278619Y-101742952D01*
X165326238Y-101719142D01*
X165421476Y-101695333D01*
X165492904Y-101695333D01*
X165588142Y-101719142D01*
X165635761Y-101742952D01*
X165683380Y-101790571D01*
X165707190Y-101862000D01*
X165707190Y-101981047D01*
X165683380Y-99909238D02*
X165707190Y-99837809D01*
X165707190Y-99718761D01*
X165683380Y-99671142D01*
X165659571Y-99647333D01*
X165611952Y-99623523D01*
X165564333Y-99623523D01*
X165516714Y-99647333D01*
X165492904Y-99671142D01*
X165469095Y-99718761D01*
X165445285Y-99814000D01*
X165421476Y-99861619D01*
X165397666Y-99885428D01*
X165350047Y-99909238D01*
X165302428Y-99909238D01*
X165254809Y-99885428D01*
X165231000Y-99861619D01*
X165207190Y-99814000D01*
X165207190Y-99694952D01*
X165231000Y-99623523D01*
X165659571Y-99123523D02*
X165683380Y-99147333D01*
X165707190Y-99218761D01*
X165707190Y-99266380D01*
X165683380Y-99337809D01*
X165635761Y-99385428D01*
X165588142Y-99409238D01*
X165492904Y-99433047D01*
X165421476Y-99433047D01*
X165326238Y-99409238D01*
X165278619Y-99385428D01*
X165231000Y-99337809D01*
X165207190Y-99266380D01*
X165207190Y-99218761D01*
X165231000Y-99147333D01*
X165254809Y-99123523D01*
X165707190Y-98671142D02*
X165707190Y-98909238D01*
X165207190Y-98909238D01*
X165683380Y-96365142D02*
X165707190Y-96293714D01*
X165707190Y-96174666D01*
X165683380Y-96127047D01*
X165659571Y-96103238D01*
X165611952Y-96079428D01*
X165564333Y-96079428D01*
X165516714Y-96103238D01*
X165492904Y-96127047D01*
X165469095Y-96174666D01*
X165445285Y-96269904D01*
X165421476Y-96317523D01*
X165397666Y-96341333D01*
X165350047Y-96365142D01*
X165302428Y-96365142D01*
X165254809Y-96341333D01*
X165231000Y-96317523D01*
X165207190Y-96269904D01*
X165207190Y-96150857D01*
X165231000Y-96079428D01*
X165707190Y-95865142D02*
X165207190Y-95865142D01*
X165207190Y-95746095D01*
X165231000Y-95674666D01*
X165278619Y-95627047D01*
X165326238Y-95603238D01*
X165421476Y-95579428D01*
X165492904Y-95579428D01*
X165588142Y-95603238D01*
X165635761Y-95627047D01*
X165683380Y-95674666D01*
X165707190Y-95746095D01*
X165707190Y-95865142D01*
X165564333Y-95388952D02*
X165564333Y-95150857D01*
X165707190Y-95436571D02*
X165207190Y-95269904D01*
X165707190Y-95103238D01*
G04 #@! TO.C,U1*
D10*
X163536380Y-78866904D02*
X164345904Y-78866904D01*
X164441142Y-78819285D01*
X164488761Y-78771666D01*
X164536380Y-78676428D01*
X164536380Y-78485952D01*
X164488761Y-78390714D01*
X164441142Y-78343095D01*
X164345904Y-78295476D01*
X163536380Y-78295476D01*
X164536380Y-77295476D02*
X164536380Y-77866904D01*
X164536380Y-77581190D02*
X163536380Y-77581190D01*
X163679238Y-77676428D01*
X163774476Y-77771666D01*
X163822095Y-77866904D01*
D14*
X167366190Y-75568904D02*
X167866190Y-75402238D01*
X167366190Y-75235571D01*
X167866190Y-75068904D02*
X167532857Y-75068904D01*
X167366190Y-75068904D02*
X167390000Y-75092714D01*
X167413809Y-75068904D01*
X167390000Y-75045095D01*
X167366190Y-75068904D01*
X167413809Y-75068904D01*
X167532857Y-74830809D02*
X167866190Y-74830809D01*
X167580476Y-74830809D02*
X167556666Y-74807000D01*
X167532857Y-74759380D01*
X167532857Y-74687952D01*
X167556666Y-74640333D01*
X167604285Y-74616523D01*
X167866190Y-74616523D01*
X167390000Y-78426428D02*
X167366190Y-78474047D01*
X167366190Y-78545476D01*
X167390000Y-78616904D01*
X167437619Y-78664523D01*
X167485238Y-78688333D01*
X167580476Y-78712142D01*
X167651904Y-78712142D01*
X167747142Y-78688333D01*
X167794761Y-78664523D01*
X167842380Y-78616904D01*
X167866190Y-78545476D01*
X167866190Y-78497857D01*
X167842380Y-78426428D01*
X167818571Y-78402619D01*
X167651904Y-78402619D01*
X167651904Y-78497857D01*
X167532857Y-78188333D02*
X167866190Y-78188333D01*
X167580476Y-78188333D02*
X167556666Y-78164523D01*
X167532857Y-78116904D01*
X167532857Y-78045476D01*
X167556666Y-77997857D01*
X167604285Y-77974047D01*
X167866190Y-77974047D01*
X167866190Y-77521666D02*
X167366190Y-77521666D01*
X167842380Y-77521666D02*
X167866190Y-77569285D01*
X167866190Y-77664523D01*
X167842380Y-77712142D01*
X167818571Y-77735952D01*
X167770952Y-77759761D01*
X167628095Y-77759761D01*
X167580476Y-77735952D01*
X167556666Y-77712142D01*
X167532857Y-77664523D01*
X167532857Y-77569285D01*
X167556666Y-77521666D01*
X167866190Y-81664904D02*
X167366190Y-81664904D01*
X167866190Y-81379190D02*
X167580476Y-81593476D01*
X167366190Y-81379190D02*
X167651904Y-81664904D01*
X167866190Y-81164904D02*
X167532857Y-81164904D01*
X167366190Y-81164904D02*
X167390000Y-81188714D01*
X167413809Y-81164904D01*
X167390000Y-81141095D01*
X167366190Y-81164904D01*
X167413809Y-81164904D01*
X167866190Y-80855380D02*
X167842380Y-80903000D01*
X167794761Y-80926809D01*
X167366190Y-80926809D01*
X167866190Y-80593476D02*
X167842380Y-80641095D01*
X167794761Y-80664904D01*
X167366190Y-80664904D01*
G04 #@! TO.C,IC1*
D10*
X144216380Y-103084190D02*
X143216380Y-103084190D01*
X144121142Y-102036571D02*
X144168761Y-102084190D01*
X144216380Y-102227047D01*
X144216380Y-102322285D01*
X144168761Y-102465142D01*
X144073523Y-102560380D01*
X143978285Y-102608000D01*
X143787809Y-102655619D01*
X143644952Y-102655619D01*
X143454476Y-102608000D01*
X143359238Y-102560380D01*
X143264000Y-102465142D01*
X143216380Y-102322285D01*
X143216380Y-102227047D01*
X143264000Y-102084190D01*
X143311619Y-102036571D01*
X144216380Y-101084190D02*
X144216380Y-101655619D01*
X144216380Y-101369904D02*
X143216380Y-101369904D01*
X143359238Y-101465142D01*
X143454476Y-101560380D01*
X143502095Y-101655619D01*
G04 #@! TO.C,U2*
D15*
X165255055Y-94021203D02*
X165514139Y-94021203D01*
X165544619Y-94005963D01*
X165559860Y-93990723D01*
X165575100Y-93960242D01*
X165575100Y-93899281D01*
X165559860Y-93868801D01*
X165544619Y-93853561D01*
X165514139Y-93838320D01*
X165255055Y-93838320D01*
X165285535Y-93701158D02*
X165270295Y-93685918D01*
X165255055Y-93655438D01*
X165255055Y-93579236D01*
X165270295Y-93548756D01*
X165285535Y-93533516D01*
X165316016Y-93518275D01*
X165346496Y-93518275D01*
X165392217Y-93533516D01*
X165575100Y-93716399D01*
X165575100Y-93518275D01*
G04 #@! TO.C,P1*
D10*
X148534380Y-90273095D02*
X147534380Y-90273095D01*
X147534380Y-89892142D01*
X147582000Y-89796904D01*
X147629619Y-89749285D01*
X147724857Y-89701666D01*
X147867714Y-89701666D01*
X147962952Y-89749285D01*
X148010571Y-89796904D01*
X148058190Y-89892142D01*
X148058190Y-90273095D01*
X148534380Y-88749285D02*
X148534380Y-89320714D01*
X148534380Y-89035000D02*
X147534380Y-89035000D01*
X147677238Y-89130238D01*
X147772476Y-89225476D01*
X147820095Y-89320714D01*
G04 #@! TO.C,P2*
X158694380Y-90273095D02*
X157694380Y-90273095D01*
X157694380Y-89892142D01*
X157742000Y-89796904D01*
X157789619Y-89749285D01*
X157884857Y-89701666D01*
X158027714Y-89701666D01*
X158122952Y-89749285D01*
X158170571Y-89796904D01*
X158218190Y-89892142D01*
X158218190Y-90273095D01*
X157789619Y-89320714D02*
X157742000Y-89273095D01*
X157694380Y-89177857D01*
X157694380Y-88939761D01*
X157742000Y-88844523D01*
X157789619Y-88796904D01*
X157884857Y-88749285D01*
X157980095Y-88749285D01*
X158122952Y-88796904D01*
X158694380Y-89368333D01*
X158694380Y-88749285D01*
G04 #@! TO.C,C1*
X157329142Y-80811666D02*
X157376761Y-80859285D01*
X157424380Y-81002142D01*
X157424380Y-81097380D01*
X157376761Y-81240238D01*
X157281523Y-81335476D01*
X157186285Y-81383095D01*
X156995809Y-81430714D01*
X156852952Y-81430714D01*
X156662476Y-81383095D01*
X156567238Y-81335476D01*
X156472000Y-81240238D01*
X156424380Y-81097380D01*
X156424380Y-81002142D01*
X156472000Y-80859285D01*
X156519619Y-80811666D01*
X157424380Y-79859285D02*
X157424380Y-80430714D01*
X157424380Y-80145000D02*
X156424380Y-80145000D01*
X156567238Y-80240238D01*
X156662476Y-80335476D01*
X156710095Y-80430714D01*
G04 #@! TO.C,D1*
X164361904Y-57729380D02*
X164361904Y-56729380D01*
X164600000Y-56729380D01*
X164742857Y-56777000D01*
X164838095Y-56872238D01*
X164885714Y-56967476D01*
X164933333Y-57157952D01*
X164933333Y-57300809D01*
X164885714Y-57491285D01*
X164838095Y-57586523D01*
X164742857Y-57681761D01*
X164600000Y-57729380D01*
X164361904Y-57729380D01*
X165885714Y-57729380D02*
X165314285Y-57729380D01*
X165600000Y-57729380D02*
X165600000Y-56729380D01*
X165504761Y-56872238D01*
X165409523Y-56967476D01*
X165314285Y-57015095D01*
G04 #@! TO.C,D2*
X156233904Y-57729380D02*
X156233904Y-56729380D01*
X156472000Y-56729380D01*
X156614857Y-56777000D01*
X156710095Y-56872238D01*
X156757714Y-56967476D01*
X156805333Y-57157952D01*
X156805333Y-57300809D01*
X156757714Y-57491285D01*
X156710095Y-57586523D01*
X156614857Y-57681761D01*
X156472000Y-57729380D01*
X156233904Y-57729380D01*
X157186285Y-56824619D02*
X157233904Y-56777000D01*
X157329142Y-56729380D01*
X157567238Y-56729380D01*
X157662476Y-56777000D01*
X157710095Y-56824619D01*
X157757714Y-56919857D01*
X157757714Y-57015095D01*
X157710095Y-57157952D01*
X157138666Y-57729380D01*
X157757714Y-57729380D01*
G04 #@! TO.C,D3*
X148613904Y-57729380D02*
X148613904Y-56729380D01*
X148852000Y-56729380D01*
X148994857Y-56777000D01*
X149090095Y-56872238D01*
X149137714Y-56967476D01*
X149185333Y-57157952D01*
X149185333Y-57300809D01*
X149137714Y-57491285D01*
X149090095Y-57586523D01*
X148994857Y-57681761D01*
X148852000Y-57729380D01*
X148613904Y-57729380D01*
X149518666Y-56729380D02*
X150137714Y-56729380D01*
X149804380Y-57110333D01*
X149947238Y-57110333D01*
X150042476Y-57157952D01*
X150090095Y-57205571D01*
X150137714Y-57300809D01*
X150137714Y-57538904D01*
X150090095Y-57634142D01*
X150042476Y-57681761D01*
X149947238Y-57729380D01*
X149661523Y-57729380D01*
X149566285Y-57681761D01*
X149518666Y-57634142D01*
G04 #@! TO.C,D4*
X140993904Y-57729380D02*
X140993904Y-56729380D01*
X141232000Y-56729380D01*
X141374857Y-56777000D01*
X141470095Y-56872238D01*
X141517714Y-56967476D01*
X141565333Y-57157952D01*
X141565333Y-57300809D01*
X141517714Y-57491285D01*
X141470095Y-57586523D01*
X141374857Y-57681761D01*
X141232000Y-57729380D01*
X140993904Y-57729380D01*
X142422476Y-57062714D02*
X142422476Y-57729380D01*
X142184380Y-56681761D02*
X141946285Y-57396047D01*
X142565333Y-57396047D01*
G04 #@! TO.C,D5*
X153360380Y-85447095D02*
X152360380Y-85447095D01*
X152360380Y-85209000D01*
X152408000Y-85066142D01*
X152503238Y-84970904D01*
X152598476Y-84923285D01*
X152788952Y-84875666D01*
X152931809Y-84875666D01*
X153122285Y-84923285D01*
X153217523Y-84970904D01*
X153312761Y-85066142D01*
X153360380Y-85209000D01*
X153360380Y-85447095D01*
X152360380Y-83970904D02*
X152360380Y-84447095D01*
X152836571Y-84494714D01*
X152788952Y-84447095D01*
X152741333Y-84351857D01*
X152741333Y-84113761D01*
X152788952Y-84018523D01*
X152836571Y-83970904D01*
X152931809Y-83923285D01*
X153169904Y-83923285D01*
X153265142Y-83970904D01*
X153312761Y-84018523D01*
X153360380Y-84113761D01*
X153360380Y-84351857D01*
X153312761Y-84447095D01*
X153265142Y-84494714D01*
X157726095Y-87261380D02*
X157726095Y-86261380D01*
X158297523Y-87261380D02*
X157868952Y-86689952D01*
X158297523Y-86261380D02*
X157726095Y-86832809D01*
G04 #@! TO.C,M1*
X157424380Y-77390523D02*
X156424380Y-77390523D01*
X157138666Y-77057190D01*
X156424380Y-76723857D01*
X157424380Y-76723857D01*
X157424380Y-75723857D02*
X157424380Y-76295285D01*
X157424380Y-76009571D02*
X156424380Y-76009571D01*
X156567238Y-76104809D01*
X156662476Y-76200047D01*
X156710095Y-76295285D01*
G04 #@! TO.C,Q1*
X153574761Y-89320619D02*
X153479523Y-89273000D01*
X153384285Y-89177761D01*
X153241428Y-89034904D01*
X153146190Y-88987285D01*
X153050952Y-88987285D01*
X153098571Y-89225380D02*
X153003333Y-89177761D01*
X152908095Y-89082523D01*
X152860476Y-88892047D01*
X152860476Y-88558714D01*
X152908095Y-88368238D01*
X153003333Y-88273000D01*
X153098571Y-88225380D01*
X153289047Y-88225380D01*
X153384285Y-88273000D01*
X153479523Y-88368238D01*
X153527142Y-88558714D01*
X153527142Y-88892047D01*
X153479523Y-89082523D01*
X153384285Y-89177761D01*
X153289047Y-89225380D01*
X153098571Y-89225380D01*
X154479523Y-89225380D02*
X153908095Y-89225380D01*
X154193809Y-89225380D02*
X154193809Y-88225380D01*
X154098571Y-88368238D01*
X154003333Y-88463476D01*
X153908095Y-88511095D01*
G04 #@! TO.C,R1*
X165664380Y-68873666D02*
X165188190Y-69207000D01*
X165664380Y-69445095D02*
X164664380Y-69445095D01*
X164664380Y-69064142D01*
X164712000Y-68968904D01*
X164759619Y-68921285D01*
X164854857Y-68873666D01*
X164997714Y-68873666D01*
X165092952Y-68921285D01*
X165140571Y-68968904D01*
X165188190Y-69064142D01*
X165188190Y-69445095D01*
X165664380Y-67921285D02*
X165664380Y-68492714D01*
X165664380Y-68207000D02*
X164664380Y-68207000D01*
X164807238Y-68302238D01*
X164902476Y-68397476D01*
X164950095Y-68492714D01*
G04 #@! TO.C,R2*
X153472380Y-69381666D02*
X152996190Y-69715000D01*
X153472380Y-69953095D02*
X152472380Y-69953095D01*
X152472380Y-69572142D01*
X152520000Y-69476904D01*
X152567619Y-69429285D01*
X152662857Y-69381666D01*
X152805714Y-69381666D01*
X152900952Y-69429285D01*
X152948571Y-69476904D01*
X152996190Y-69572142D01*
X152996190Y-69953095D01*
X152567619Y-69000714D02*
X152520000Y-68953095D01*
X152472380Y-68857857D01*
X152472380Y-68619761D01*
X152520000Y-68524523D01*
X152567619Y-68476904D01*
X152662857Y-68429285D01*
X152758095Y-68429285D01*
X152900952Y-68476904D01*
X153472380Y-69048333D01*
X153472380Y-68429285D01*
G04 #@! TO.C,R3*
X149408380Y-69381666D02*
X148932190Y-69715000D01*
X149408380Y-69953095D02*
X148408380Y-69953095D01*
X148408380Y-69572142D01*
X148456000Y-69476904D01*
X148503619Y-69429285D01*
X148598857Y-69381666D01*
X148741714Y-69381666D01*
X148836952Y-69429285D01*
X148884571Y-69476904D01*
X148932190Y-69572142D01*
X148932190Y-69953095D01*
X148408380Y-69048333D02*
X148408380Y-68429285D01*
X148789333Y-68762619D01*
X148789333Y-68619761D01*
X148836952Y-68524523D01*
X148884571Y-68476904D01*
X148979809Y-68429285D01*
X149217904Y-68429285D01*
X149313142Y-68476904D01*
X149360761Y-68524523D01*
X149408380Y-68619761D01*
X149408380Y-68905476D01*
X149360761Y-69000714D01*
X149313142Y-69048333D01*
G04 #@! TO.C,R4*
X142184380Y-68873666D02*
X141708190Y-69207000D01*
X142184380Y-69445095D02*
X141184380Y-69445095D01*
X141184380Y-69064142D01*
X141232000Y-68968904D01*
X141279619Y-68921285D01*
X141374857Y-68873666D01*
X141517714Y-68873666D01*
X141612952Y-68921285D01*
X141660571Y-68968904D01*
X141708190Y-69064142D01*
X141708190Y-69445095D01*
X141517714Y-68016523D02*
X142184380Y-68016523D01*
X141136761Y-68254619D02*
X141851047Y-68492714D01*
X141851047Y-67873666D01*
G04 #@! TO.C,R5*
X153503333Y-98369380D02*
X153170000Y-97893190D01*
X152931904Y-98369380D02*
X152931904Y-97369380D01*
X153312857Y-97369380D01*
X153408095Y-97417000D01*
X153455714Y-97464619D01*
X153503333Y-97559857D01*
X153503333Y-97702714D01*
X153455714Y-97797952D01*
X153408095Y-97845571D01*
X153312857Y-97893190D01*
X152931904Y-97893190D01*
X154408095Y-97369380D02*
X153931904Y-97369380D01*
X153884285Y-97845571D01*
X153931904Y-97797952D01*
X154027142Y-97750333D01*
X154265238Y-97750333D01*
X154360476Y-97797952D01*
X154408095Y-97845571D01*
X154455714Y-97940809D01*
X154455714Y-98178904D01*
X154408095Y-98274142D01*
X154360476Y-98321761D01*
X154265238Y-98369380D01*
X154027142Y-98369380D01*
X153931904Y-98321761D01*
X153884285Y-98274142D01*
G04 #@! TD*
M02*
