G04 #@! TF.GenerationSoftware,KiCad,Pcbnew,(5.0.2)-1*
G04 #@! TF.CreationDate,2019-02-04T22:04:25-05:00*
G04 #@! TF.ProjectId,main,6d61696e-2e6b-4696-9361-645f70636258,rev?*
G04 #@! TF.SameCoordinates,Original*
G04 #@! TF.FileFunction,Soldermask,Top*
G04 #@! TF.FilePolarity,Negative*
%FSLAX46Y46*%
G04 Gerber Fmt 4.6, Leading zero omitted, Abs format (unit mm)*
G04 Created by KiCad (PCBNEW (5.0.2)-1) date 2019-02-04 10:04:25 PM*
%MOMM*%
%LPD*%
G01*
G04 APERTURE LIST*
%ADD10C,0.100000*%
G04 APERTURE END LIST*
D10*
G36*
X167379765Y-107847403D02*
X167502445Y-107871805D01*
X167733571Y-107967541D01*
X167941581Y-108106529D01*
X168118471Y-108283419D01*
X168118473Y-108283422D01*
X168257459Y-108491429D01*
X168353195Y-108722555D01*
X168353195Y-108722557D01*
X168402000Y-108967914D01*
X168402000Y-109218086D01*
X168377598Y-109340764D01*
X168353195Y-109463445D01*
X168257459Y-109694571D01*
X168118471Y-109902581D01*
X167941581Y-110079471D01*
X167941578Y-110079473D01*
X167733571Y-110218459D01*
X167502445Y-110314195D01*
X167379764Y-110338598D01*
X167257086Y-110363000D01*
X167006914Y-110363000D01*
X166884236Y-110338598D01*
X166761555Y-110314195D01*
X166530429Y-110218459D01*
X166322422Y-110079473D01*
X166322419Y-110079471D01*
X166145529Y-109902581D01*
X166006541Y-109694571D01*
X165910805Y-109463445D01*
X165886402Y-109340764D01*
X165862000Y-109218086D01*
X165862000Y-108967914D01*
X165910805Y-108722557D01*
X165910805Y-108722555D01*
X166006541Y-108491429D01*
X166145527Y-108283422D01*
X166145529Y-108283419D01*
X166322419Y-108106529D01*
X166530429Y-107967541D01*
X166761555Y-107871805D01*
X166884235Y-107847403D01*
X167006914Y-107823000D01*
X167257086Y-107823000D01*
X167379765Y-107847403D01*
X167379765Y-107847403D01*
G37*
G36*
X139947765Y-107847403D02*
X140070445Y-107871805D01*
X140301571Y-107967541D01*
X140509581Y-108106529D01*
X140686471Y-108283419D01*
X140686473Y-108283422D01*
X140825459Y-108491429D01*
X140921195Y-108722555D01*
X140921195Y-108722557D01*
X140970000Y-108967914D01*
X140970000Y-109218086D01*
X140945598Y-109340764D01*
X140921195Y-109463445D01*
X140825459Y-109694571D01*
X140686471Y-109902581D01*
X140509581Y-110079471D01*
X140509578Y-110079473D01*
X140301571Y-110218459D01*
X140070445Y-110314195D01*
X139947764Y-110338598D01*
X139825086Y-110363000D01*
X139574914Y-110363000D01*
X139452236Y-110338598D01*
X139329555Y-110314195D01*
X139098429Y-110218459D01*
X138890422Y-110079473D01*
X138890419Y-110079471D01*
X138713529Y-109902581D01*
X138574541Y-109694571D01*
X138478805Y-109463445D01*
X138454403Y-109340765D01*
X138430000Y-109218086D01*
X138430000Y-108967914D01*
X138478805Y-108722557D01*
X138478805Y-108722555D01*
X138574541Y-108491429D01*
X138713527Y-108283422D01*
X138713529Y-108283419D01*
X138890419Y-108106529D01*
X139098429Y-107967541D01*
X139329555Y-107871805D01*
X139452235Y-107847403D01*
X139574914Y-107823000D01*
X139825086Y-107823000D01*
X139947765Y-107847403D01*
X139947765Y-107847403D01*
G37*
G36*
X145779112Y-107852565D02*
X145863695Y-107860896D01*
X145984127Y-107897429D01*
X146026488Y-107910279D01*
X146176512Y-107990468D01*
X146308012Y-108098388D01*
X146415932Y-108229888D01*
X146496121Y-108379912D01*
X146496122Y-108379916D01*
X146545504Y-108542705D01*
X146562178Y-108712000D01*
X146545504Y-108881295D01*
X146508971Y-109001727D01*
X146496121Y-109044088D01*
X146415932Y-109194112D01*
X146308012Y-109325612D01*
X146176512Y-109433532D01*
X146026488Y-109513721D01*
X145984127Y-109526571D01*
X145863695Y-109563104D01*
X145779112Y-109571435D01*
X145736821Y-109575600D01*
X145347179Y-109575600D01*
X145304888Y-109571435D01*
X145220305Y-109563104D01*
X145099873Y-109526571D01*
X145057512Y-109513721D01*
X144907488Y-109433532D01*
X144775988Y-109325612D01*
X144668068Y-109194112D01*
X144587879Y-109044088D01*
X144575029Y-109001727D01*
X144538496Y-108881295D01*
X144521822Y-108712000D01*
X144538496Y-108542705D01*
X144587878Y-108379916D01*
X144587879Y-108379912D01*
X144668068Y-108229888D01*
X144775988Y-108098388D01*
X144907488Y-107990468D01*
X145057512Y-107910279D01*
X145099873Y-107897429D01*
X145220305Y-107860896D01*
X145304888Y-107852565D01*
X145347179Y-107848400D01*
X145736821Y-107848400D01*
X145779112Y-107852565D01*
X145779112Y-107852565D01*
G37*
G36*
X161019112Y-107852565D02*
X161103695Y-107860896D01*
X161224127Y-107897429D01*
X161266488Y-107910279D01*
X161416512Y-107990468D01*
X161548012Y-108098388D01*
X161655932Y-108229888D01*
X161736121Y-108379912D01*
X161736122Y-108379916D01*
X161785504Y-108542705D01*
X161802178Y-108712000D01*
X161785504Y-108881295D01*
X161748971Y-109001727D01*
X161736121Y-109044088D01*
X161655932Y-109194112D01*
X161548012Y-109325612D01*
X161416512Y-109433532D01*
X161266488Y-109513721D01*
X161224127Y-109526571D01*
X161103695Y-109563104D01*
X161019112Y-109571435D01*
X160976821Y-109575600D01*
X160587179Y-109575600D01*
X160544888Y-109571435D01*
X160460305Y-109563104D01*
X160339873Y-109526571D01*
X160297512Y-109513721D01*
X160147488Y-109433532D01*
X160015988Y-109325612D01*
X159908068Y-109194112D01*
X159827879Y-109044088D01*
X159815029Y-109001727D01*
X159778496Y-108881295D01*
X159761822Y-108712000D01*
X159778496Y-108542705D01*
X159827878Y-108379916D01*
X159827879Y-108379912D01*
X159908068Y-108229888D01*
X160015988Y-108098388D01*
X160147488Y-107990468D01*
X160297512Y-107910279D01*
X160339873Y-107897429D01*
X160460305Y-107860896D01*
X160544888Y-107852565D01*
X160587179Y-107848400D01*
X160976821Y-107848400D01*
X161019112Y-107852565D01*
X161019112Y-107852565D01*
G37*
G36*
X161019112Y-105312565D02*
X161103695Y-105320896D01*
X161224127Y-105357429D01*
X161266488Y-105370279D01*
X161416512Y-105450468D01*
X161548012Y-105558388D01*
X161655932Y-105689888D01*
X161736121Y-105839912D01*
X161736122Y-105839916D01*
X161785504Y-106002705D01*
X161802178Y-106172000D01*
X161785504Y-106341295D01*
X161764817Y-106409490D01*
X161736121Y-106504088D01*
X161655932Y-106654112D01*
X161548012Y-106785612D01*
X161416512Y-106893532D01*
X161266488Y-106973721D01*
X161224127Y-106986571D01*
X161103695Y-107023104D01*
X161019112Y-107031435D01*
X160976821Y-107035600D01*
X160587179Y-107035600D01*
X160544888Y-107031435D01*
X160460305Y-107023104D01*
X160339873Y-106986571D01*
X160297512Y-106973721D01*
X160147488Y-106893532D01*
X160015988Y-106785612D01*
X159908068Y-106654112D01*
X159827879Y-106504088D01*
X159799183Y-106409490D01*
X159778496Y-106341295D01*
X159761822Y-106172000D01*
X159778496Y-106002705D01*
X159827878Y-105839916D01*
X159827879Y-105839912D01*
X159908068Y-105689888D01*
X160015988Y-105558388D01*
X160147488Y-105450468D01*
X160297512Y-105370279D01*
X160339873Y-105357429D01*
X160460305Y-105320896D01*
X160544888Y-105312565D01*
X160587179Y-105308400D01*
X160976821Y-105308400D01*
X161019112Y-105312565D01*
X161019112Y-105312565D01*
G37*
G36*
X145779112Y-105312565D02*
X145863695Y-105320896D01*
X145984127Y-105357429D01*
X146026488Y-105370279D01*
X146176512Y-105450468D01*
X146308012Y-105558388D01*
X146415932Y-105689888D01*
X146496121Y-105839912D01*
X146496122Y-105839916D01*
X146545504Y-106002705D01*
X146562178Y-106172000D01*
X146545504Y-106341295D01*
X146524817Y-106409490D01*
X146496121Y-106504088D01*
X146415932Y-106654112D01*
X146308012Y-106785612D01*
X146176512Y-106893532D01*
X146026488Y-106973721D01*
X145984127Y-106986571D01*
X145863695Y-107023104D01*
X145779112Y-107031435D01*
X145736821Y-107035600D01*
X145347179Y-107035600D01*
X145304888Y-107031435D01*
X145220305Y-107023104D01*
X145099873Y-106986571D01*
X145057512Y-106973721D01*
X144907488Y-106893532D01*
X144775988Y-106785612D01*
X144668068Y-106654112D01*
X144587879Y-106504088D01*
X144559183Y-106409490D01*
X144538496Y-106341295D01*
X144521822Y-106172000D01*
X144538496Y-106002705D01*
X144587878Y-105839916D01*
X144587879Y-105839912D01*
X144668068Y-105689888D01*
X144775988Y-105558388D01*
X144907488Y-105450468D01*
X145057512Y-105370279D01*
X145099873Y-105357429D01*
X145220305Y-105320896D01*
X145304888Y-105312565D01*
X145347179Y-105308400D01*
X145736821Y-105308400D01*
X145779112Y-105312565D01*
X145779112Y-105312565D01*
G37*
G36*
X168004490Y-106409490D02*
X166005510Y-106409490D01*
X166005510Y-104410510D01*
X168004490Y-104410510D01*
X168004490Y-106409490D01*
X168004490Y-106409490D01*
G37*
G36*
X141515538Y-104321919D02*
X141697437Y-104397264D01*
X141861141Y-104506648D01*
X142000352Y-104645859D01*
X142109736Y-104809563D01*
X142185081Y-104991462D01*
X142223490Y-105184557D01*
X142223490Y-105381443D01*
X142185081Y-105574538D01*
X142109736Y-105756437D01*
X142000352Y-105920141D01*
X141861141Y-106059352D01*
X141697437Y-106168736D01*
X141515538Y-106244081D01*
X141322443Y-106282490D01*
X141125557Y-106282490D01*
X140932462Y-106244081D01*
X140750563Y-106168736D01*
X140586859Y-106059352D01*
X140447648Y-105920141D01*
X140338264Y-105756437D01*
X140262919Y-105574538D01*
X140224510Y-105381443D01*
X140224510Y-105184557D01*
X140262919Y-104991462D01*
X140338264Y-104809563D01*
X140447648Y-104645859D01*
X140586859Y-104506648D01*
X140750563Y-104397264D01*
X140932462Y-104321919D01*
X141125557Y-104283510D01*
X141322443Y-104283510D01*
X141515538Y-104321919D01*
X141515538Y-104321919D01*
G37*
G36*
X161019112Y-102772565D02*
X161103695Y-102780896D01*
X161224127Y-102817429D01*
X161266488Y-102830279D01*
X161416512Y-102910468D01*
X161548012Y-103018388D01*
X161655932Y-103149888D01*
X161736121Y-103299912D01*
X161736122Y-103299916D01*
X161785504Y-103462705D01*
X161802178Y-103632000D01*
X161785504Y-103801295D01*
X161748971Y-103921727D01*
X161736121Y-103964088D01*
X161655932Y-104114112D01*
X161548012Y-104245612D01*
X161416512Y-104353532D01*
X161266488Y-104433721D01*
X161224127Y-104446571D01*
X161103695Y-104483104D01*
X161019112Y-104491435D01*
X160976821Y-104495600D01*
X160587179Y-104495600D01*
X160544888Y-104491435D01*
X160460305Y-104483104D01*
X160339873Y-104446571D01*
X160297512Y-104433721D01*
X160147488Y-104353532D01*
X160015988Y-104245612D01*
X159908068Y-104114112D01*
X159827879Y-103964088D01*
X159815029Y-103921727D01*
X159778496Y-103801295D01*
X159761822Y-103632000D01*
X159778496Y-103462705D01*
X159827878Y-103299916D01*
X159827879Y-103299912D01*
X159908068Y-103149888D01*
X160015988Y-103018388D01*
X160147488Y-102910468D01*
X160297512Y-102830279D01*
X160339873Y-102817429D01*
X160460305Y-102780896D01*
X160544888Y-102772565D01*
X160587179Y-102768400D01*
X160976821Y-102768400D01*
X161019112Y-102772565D01*
X161019112Y-102772565D01*
G37*
G36*
X145779112Y-102772565D02*
X145863695Y-102780896D01*
X145984127Y-102817429D01*
X146026488Y-102830279D01*
X146176512Y-102910468D01*
X146308012Y-103018388D01*
X146415932Y-103149888D01*
X146496121Y-103299912D01*
X146496122Y-103299916D01*
X146545504Y-103462705D01*
X146562178Y-103632000D01*
X146545504Y-103801295D01*
X146508971Y-103921727D01*
X146496121Y-103964088D01*
X146415932Y-104114112D01*
X146308012Y-104245612D01*
X146176512Y-104353532D01*
X146026488Y-104433721D01*
X145984127Y-104446571D01*
X145863695Y-104483104D01*
X145779112Y-104491435D01*
X145736821Y-104495600D01*
X145347179Y-104495600D01*
X145304888Y-104491435D01*
X145220305Y-104483104D01*
X145099873Y-104446571D01*
X145057512Y-104433721D01*
X144907488Y-104353532D01*
X144775988Y-104245612D01*
X144668068Y-104114112D01*
X144587879Y-103964088D01*
X144575029Y-103921727D01*
X144538496Y-103801295D01*
X144521822Y-103632000D01*
X144538496Y-103462705D01*
X144587878Y-103299916D01*
X144587879Y-103299912D01*
X144668068Y-103149888D01*
X144775988Y-103018388D01*
X144907488Y-102910468D01*
X145057512Y-102830279D01*
X145099873Y-102817429D01*
X145220305Y-102780896D01*
X145304888Y-102772565D01*
X145347179Y-102768400D01*
X145736821Y-102768400D01*
X145779112Y-102772565D01*
X145779112Y-102772565D01*
G37*
G36*
X167296538Y-101273919D02*
X167478437Y-101349264D01*
X167642141Y-101458648D01*
X167781352Y-101597859D01*
X167890736Y-101761563D01*
X167966081Y-101943462D01*
X168004490Y-102136557D01*
X168004490Y-102333443D01*
X167966081Y-102526538D01*
X167890736Y-102708437D01*
X167781352Y-102872141D01*
X167642141Y-103011352D01*
X167478437Y-103120736D01*
X167296538Y-103196081D01*
X167103443Y-103234490D01*
X166906557Y-103234490D01*
X166713462Y-103196081D01*
X166531563Y-103120736D01*
X166367859Y-103011352D01*
X166228648Y-102872141D01*
X166119264Y-102708437D01*
X166043919Y-102526538D01*
X166005510Y-102333443D01*
X166005510Y-102136557D01*
X166043919Y-101943462D01*
X166119264Y-101761563D01*
X166228648Y-101597859D01*
X166367859Y-101458648D01*
X166531563Y-101349264D01*
X166713462Y-101273919D01*
X166906557Y-101235510D01*
X167103443Y-101235510D01*
X167296538Y-101273919D01*
X167296538Y-101273919D01*
G37*
G36*
X141515538Y-101146919D02*
X141697437Y-101222264D01*
X141861141Y-101331648D01*
X142000352Y-101470859D01*
X142109736Y-101634563D01*
X142185081Y-101816462D01*
X142223490Y-102009557D01*
X142223490Y-102206443D01*
X142185081Y-102399538D01*
X142109736Y-102581437D01*
X142000352Y-102745141D01*
X141861141Y-102884352D01*
X141697437Y-102993736D01*
X141515538Y-103069081D01*
X141322443Y-103107490D01*
X141125557Y-103107490D01*
X140932462Y-103069081D01*
X140750563Y-102993736D01*
X140586859Y-102884352D01*
X140447648Y-102745141D01*
X140338264Y-102581437D01*
X140262919Y-102399538D01*
X140224510Y-102206443D01*
X140224510Y-102009557D01*
X140262919Y-101816462D01*
X140338264Y-101634563D01*
X140447648Y-101470859D01*
X140586859Y-101331648D01*
X140750563Y-101222264D01*
X140932462Y-101146919D01*
X141125557Y-101108510D01*
X141322443Y-101108510D01*
X141515538Y-101146919D01*
X141515538Y-101146919D01*
G37*
G36*
X161019112Y-100232565D02*
X161103695Y-100240896D01*
X161224127Y-100277429D01*
X161266488Y-100290279D01*
X161416512Y-100370468D01*
X161548012Y-100478388D01*
X161655932Y-100609888D01*
X161736121Y-100759912D01*
X161736122Y-100759916D01*
X161785504Y-100922705D01*
X161802178Y-101092000D01*
X161785504Y-101261295D01*
X161748971Y-101381727D01*
X161736121Y-101424088D01*
X161655932Y-101574112D01*
X161548012Y-101705612D01*
X161416512Y-101813532D01*
X161266488Y-101893721D01*
X161224127Y-101906571D01*
X161103695Y-101943104D01*
X161019112Y-101951435D01*
X160976821Y-101955600D01*
X160587179Y-101955600D01*
X160544888Y-101951435D01*
X160460305Y-101943104D01*
X160339873Y-101906571D01*
X160297512Y-101893721D01*
X160147488Y-101813532D01*
X160015988Y-101705612D01*
X159908068Y-101574112D01*
X159827879Y-101424088D01*
X159815029Y-101381727D01*
X159778496Y-101261295D01*
X159761822Y-101092000D01*
X159778496Y-100922705D01*
X159827878Y-100759916D01*
X159827879Y-100759912D01*
X159908068Y-100609888D01*
X160015988Y-100478388D01*
X160147488Y-100370468D01*
X160297512Y-100290279D01*
X160339873Y-100277429D01*
X160460305Y-100240896D01*
X160544888Y-100232565D01*
X160587179Y-100228400D01*
X160976821Y-100228400D01*
X161019112Y-100232565D01*
X161019112Y-100232565D01*
G37*
G36*
X145779112Y-100232565D02*
X145863695Y-100240896D01*
X145984127Y-100277429D01*
X146026488Y-100290279D01*
X146176512Y-100370468D01*
X146308012Y-100478388D01*
X146415932Y-100609888D01*
X146496121Y-100759912D01*
X146496122Y-100759916D01*
X146545504Y-100922705D01*
X146562178Y-101092000D01*
X146545504Y-101261295D01*
X146508971Y-101381727D01*
X146496121Y-101424088D01*
X146415932Y-101574112D01*
X146308012Y-101705612D01*
X146176512Y-101813532D01*
X146026488Y-101893721D01*
X145984127Y-101906571D01*
X145863695Y-101943104D01*
X145779112Y-101951435D01*
X145736821Y-101955600D01*
X145347179Y-101955600D01*
X145304888Y-101951435D01*
X145220305Y-101943104D01*
X145099873Y-101906571D01*
X145057512Y-101893721D01*
X144907488Y-101813532D01*
X144775988Y-101705612D01*
X144668068Y-101574112D01*
X144587879Y-101424088D01*
X144575029Y-101381727D01*
X144538496Y-101261295D01*
X144521822Y-101092000D01*
X144538496Y-100922705D01*
X144587878Y-100759916D01*
X144587879Y-100759912D01*
X144668068Y-100609888D01*
X144775988Y-100478388D01*
X144907488Y-100370468D01*
X145057512Y-100290279D01*
X145099873Y-100277429D01*
X145220305Y-100240896D01*
X145304888Y-100232565D01*
X145347179Y-100228400D01*
X145736821Y-100228400D01*
X145779112Y-100232565D01*
X145779112Y-100232565D01*
G37*
G36*
X167296538Y-98098919D02*
X167478437Y-98174264D01*
X167642141Y-98283648D01*
X167781352Y-98422859D01*
X167890736Y-98586563D01*
X167966081Y-98768462D01*
X168004490Y-98961557D01*
X168004490Y-99158443D01*
X167966081Y-99351538D01*
X167890736Y-99533437D01*
X167781352Y-99697141D01*
X167642141Y-99836352D01*
X167478437Y-99945736D01*
X167296538Y-100021081D01*
X167103443Y-100059490D01*
X166906557Y-100059490D01*
X166713462Y-100021081D01*
X166531563Y-99945736D01*
X166367859Y-99836352D01*
X166228648Y-99697141D01*
X166119264Y-99533437D01*
X166043919Y-99351538D01*
X166005510Y-99158443D01*
X166005510Y-98961557D01*
X166043919Y-98768462D01*
X166119264Y-98586563D01*
X166228648Y-98422859D01*
X166367859Y-98283648D01*
X166531563Y-98174264D01*
X166713462Y-98098919D01*
X166906557Y-98060510D01*
X167103443Y-98060510D01*
X167296538Y-98098919D01*
X167296538Y-98098919D01*
G37*
G36*
X142223490Y-99932490D02*
X140224510Y-99932490D01*
X140224510Y-97933510D01*
X142223490Y-97933510D01*
X142223490Y-99932490D01*
X142223490Y-99932490D01*
G37*
G36*
X161019112Y-97692565D02*
X161103695Y-97700896D01*
X161224127Y-97737429D01*
X161266488Y-97750279D01*
X161416512Y-97830468D01*
X161548012Y-97938388D01*
X161655932Y-98069888D01*
X161736121Y-98219912D01*
X161736122Y-98219916D01*
X161785504Y-98382705D01*
X161802178Y-98552000D01*
X161785504Y-98721295D01*
X161771196Y-98768462D01*
X161736121Y-98884088D01*
X161655932Y-99034112D01*
X161548012Y-99165612D01*
X161416512Y-99273532D01*
X161266488Y-99353721D01*
X161224127Y-99366571D01*
X161103695Y-99403104D01*
X161019112Y-99411435D01*
X160976821Y-99415600D01*
X160587179Y-99415600D01*
X160544888Y-99411435D01*
X160460305Y-99403104D01*
X160339873Y-99366571D01*
X160297512Y-99353721D01*
X160147488Y-99273532D01*
X160015988Y-99165612D01*
X159908068Y-99034112D01*
X159827879Y-98884088D01*
X159792804Y-98768462D01*
X159778496Y-98721295D01*
X159761822Y-98552000D01*
X159778496Y-98382705D01*
X159827878Y-98219916D01*
X159827879Y-98219912D01*
X159908068Y-98069888D01*
X160015988Y-97938388D01*
X160147488Y-97830468D01*
X160297512Y-97750279D01*
X160339873Y-97737429D01*
X160460305Y-97700896D01*
X160544888Y-97692565D01*
X160587179Y-97688400D01*
X160976821Y-97688400D01*
X161019112Y-97692565D01*
X161019112Y-97692565D01*
G37*
G36*
X145779112Y-97692565D02*
X145863695Y-97700896D01*
X145984127Y-97737429D01*
X146026488Y-97750279D01*
X146176512Y-97830468D01*
X146308012Y-97938388D01*
X146415932Y-98069888D01*
X146496121Y-98219912D01*
X146496122Y-98219916D01*
X146545504Y-98382705D01*
X146562178Y-98552000D01*
X146545504Y-98721295D01*
X146531196Y-98768462D01*
X146496121Y-98884088D01*
X146415932Y-99034112D01*
X146308012Y-99165612D01*
X146176512Y-99273532D01*
X146026488Y-99353721D01*
X145984127Y-99366571D01*
X145863695Y-99403104D01*
X145779112Y-99411435D01*
X145736821Y-99415600D01*
X145347179Y-99415600D01*
X145304888Y-99411435D01*
X145220305Y-99403104D01*
X145099873Y-99366571D01*
X145057512Y-99353721D01*
X144907488Y-99273532D01*
X144775988Y-99165612D01*
X144668068Y-99034112D01*
X144587879Y-98884088D01*
X144552804Y-98768462D01*
X144538496Y-98721295D01*
X144521822Y-98552000D01*
X144538496Y-98382705D01*
X144587878Y-98219916D01*
X144587879Y-98219912D01*
X144668068Y-98069888D01*
X144775988Y-97938388D01*
X144907488Y-97830468D01*
X145057512Y-97750279D01*
X145099873Y-97737429D01*
X145220305Y-97700896D01*
X145304888Y-97692565D01*
X145347179Y-97688400D01*
X145736821Y-97688400D01*
X145779112Y-97692565D01*
X145779112Y-97692565D01*
G37*
G36*
X167296538Y-94923919D02*
X167478437Y-94999264D01*
X167642141Y-95108648D01*
X167781352Y-95247859D01*
X167890736Y-95411563D01*
X167966081Y-95593462D01*
X168004490Y-95786557D01*
X168004490Y-95983443D01*
X167966081Y-96176538D01*
X167890736Y-96358437D01*
X167781352Y-96522141D01*
X167642141Y-96661352D01*
X167478437Y-96770736D01*
X167296538Y-96846081D01*
X167103443Y-96884490D01*
X166906557Y-96884490D01*
X166713462Y-96846081D01*
X166531563Y-96770736D01*
X166367859Y-96661352D01*
X166228648Y-96522141D01*
X166119264Y-96358437D01*
X166043919Y-96176538D01*
X166005510Y-95983443D01*
X166005510Y-95786557D01*
X166043919Y-95593462D01*
X166119264Y-95411563D01*
X166228648Y-95247859D01*
X166367859Y-95108648D01*
X166531563Y-94999264D01*
X166713462Y-94923919D01*
X166906557Y-94885510D01*
X167103443Y-94885510D01*
X167296538Y-94923919D01*
X167296538Y-94923919D01*
G37*
G36*
X145779112Y-95152565D02*
X145863695Y-95160896D01*
X145943154Y-95185000D01*
X146026488Y-95210279D01*
X146176512Y-95290468D01*
X146308012Y-95398388D01*
X146415932Y-95529888D01*
X146496121Y-95679912D01*
X146496396Y-95680818D01*
X146545504Y-95842705D01*
X146562178Y-96012000D01*
X146545504Y-96181295D01*
X146534802Y-96216574D01*
X146496121Y-96344088D01*
X146415932Y-96494112D01*
X146308012Y-96625612D01*
X146176512Y-96733532D01*
X146026488Y-96813721D01*
X145984127Y-96826571D01*
X145863695Y-96863104D01*
X145779112Y-96871435D01*
X145736821Y-96875600D01*
X145347179Y-96875600D01*
X145304888Y-96871435D01*
X145220305Y-96863104D01*
X145099873Y-96826571D01*
X145057512Y-96813721D01*
X144907488Y-96733532D01*
X144775988Y-96625612D01*
X144668068Y-96494112D01*
X144587879Y-96344088D01*
X144549198Y-96216574D01*
X144538496Y-96181295D01*
X144521822Y-96012000D01*
X144538496Y-95842705D01*
X144587604Y-95680818D01*
X144587879Y-95679912D01*
X144668068Y-95529888D01*
X144775988Y-95398388D01*
X144907488Y-95290468D01*
X145057512Y-95210279D01*
X145140846Y-95185000D01*
X145220305Y-95160896D01*
X145304888Y-95152565D01*
X145347179Y-95148400D01*
X145736821Y-95148400D01*
X145779112Y-95152565D01*
X145779112Y-95152565D01*
G37*
G36*
X161019112Y-95152565D02*
X161103695Y-95160896D01*
X161183154Y-95185000D01*
X161266488Y-95210279D01*
X161416512Y-95290468D01*
X161548012Y-95398388D01*
X161655932Y-95529888D01*
X161736121Y-95679912D01*
X161736396Y-95680818D01*
X161785504Y-95842705D01*
X161802178Y-96012000D01*
X161785504Y-96181295D01*
X161774802Y-96216574D01*
X161736121Y-96344088D01*
X161655932Y-96494112D01*
X161548012Y-96625612D01*
X161416512Y-96733532D01*
X161266488Y-96813721D01*
X161224127Y-96826571D01*
X161103695Y-96863104D01*
X161019112Y-96871435D01*
X160976821Y-96875600D01*
X160587179Y-96875600D01*
X160544888Y-96871435D01*
X160460305Y-96863104D01*
X160339873Y-96826571D01*
X160297512Y-96813721D01*
X160147488Y-96733532D01*
X160015988Y-96625612D01*
X159908068Y-96494112D01*
X159827879Y-96344088D01*
X159789198Y-96216574D01*
X159778496Y-96181295D01*
X159761822Y-96012000D01*
X159778496Y-95842705D01*
X159827604Y-95680818D01*
X159827879Y-95679912D01*
X159908068Y-95529888D01*
X160015988Y-95398388D01*
X160147488Y-95290468D01*
X160297512Y-95210279D01*
X160380846Y-95185000D01*
X160460305Y-95160896D01*
X160544888Y-95152565D01*
X160587179Y-95148400D01*
X160976821Y-95148400D01*
X161019112Y-95152565D01*
X161019112Y-95152565D01*
G37*
G36*
X150064183Y-95211900D02*
X150191574Y-95264668D01*
X150306224Y-95341274D01*
X150403726Y-95438776D01*
X150480332Y-95553426D01*
X150533100Y-95680817D01*
X150560000Y-95816055D01*
X150560000Y-95953945D01*
X150533100Y-96089183D01*
X150494946Y-96181293D01*
X150480332Y-96216574D01*
X150403726Y-96331224D01*
X150306224Y-96428726D01*
X150208366Y-96494112D01*
X150191574Y-96505332D01*
X150064183Y-96558100D01*
X149928945Y-96585000D01*
X149791055Y-96585000D01*
X149655817Y-96558100D01*
X149528426Y-96505332D01*
X149511634Y-96494112D01*
X149413776Y-96428726D01*
X149316274Y-96331224D01*
X149239668Y-96216574D01*
X149225054Y-96181293D01*
X149186900Y-96089183D01*
X149160000Y-95953945D01*
X149160000Y-95816055D01*
X149186900Y-95680817D01*
X149239668Y-95553426D01*
X149316274Y-95438776D01*
X149413776Y-95341274D01*
X149528426Y-95264668D01*
X149655817Y-95211900D01*
X149791055Y-95185000D01*
X149928945Y-95185000D01*
X150064183Y-95211900D01*
X150064183Y-95211900D01*
G37*
G36*
X157617224Y-95195128D02*
X157749175Y-95235155D01*
X157870781Y-95300155D01*
X157977370Y-95387630D01*
X158064845Y-95494219D01*
X158129845Y-95615825D01*
X158169872Y-95747776D01*
X158183387Y-95885000D01*
X158169872Y-96022224D01*
X158129845Y-96154175D01*
X158064845Y-96275781D01*
X157977370Y-96382370D01*
X157870781Y-96469845D01*
X157749175Y-96534845D01*
X157617224Y-96574872D01*
X157514390Y-96585000D01*
X157445610Y-96585000D01*
X157342776Y-96574872D01*
X157210825Y-96534845D01*
X157089219Y-96469845D01*
X156982630Y-96382370D01*
X156895155Y-96275781D01*
X156830155Y-96154175D01*
X156790128Y-96022224D01*
X156776613Y-95885000D01*
X156790128Y-95747776D01*
X156830155Y-95615825D01*
X156895155Y-95494219D01*
X156982630Y-95387630D01*
X157089219Y-95300155D01*
X157210825Y-95235155D01*
X157342776Y-95195128D01*
X157445610Y-95185000D01*
X157514390Y-95185000D01*
X157617224Y-95195128D01*
X157617224Y-95195128D01*
G37*
G36*
X145779112Y-92612565D02*
X145863695Y-92620896D01*
X145984127Y-92657429D01*
X146026488Y-92670279D01*
X146176512Y-92750468D01*
X146308012Y-92858388D01*
X146415932Y-92989888D01*
X146496121Y-93139912D01*
X146496122Y-93139916D01*
X146545504Y-93302705D01*
X146562178Y-93472000D01*
X146545504Y-93641295D01*
X146508971Y-93761727D01*
X146496121Y-93804088D01*
X146415932Y-93954112D01*
X146308012Y-94085612D01*
X146176512Y-94193532D01*
X146026488Y-94273721D01*
X145984127Y-94286571D01*
X145863695Y-94323104D01*
X145779112Y-94331435D01*
X145736821Y-94335600D01*
X145347179Y-94335600D01*
X145304888Y-94331435D01*
X145220305Y-94323104D01*
X145099873Y-94286571D01*
X145057512Y-94273721D01*
X144907488Y-94193532D01*
X144775988Y-94085612D01*
X144668068Y-93954112D01*
X144587879Y-93804088D01*
X144575029Y-93761727D01*
X144538496Y-93641295D01*
X144521822Y-93472000D01*
X144538496Y-93302705D01*
X144587878Y-93139916D01*
X144587879Y-93139912D01*
X144668068Y-92989888D01*
X144775988Y-92858388D01*
X144907488Y-92750468D01*
X145057512Y-92670279D01*
X145099873Y-92657429D01*
X145220305Y-92620896D01*
X145304888Y-92612565D01*
X145347179Y-92608400D01*
X145736821Y-92608400D01*
X145779112Y-92612565D01*
X145779112Y-92612565D01*
G37*
G36*
X161019112Y-92612565D02*
X161103695Y-92620896D01*
X161224127Y-92657429D01*
X161266488Y-92670279D01*
X161416512Y-92750468D01*
X161548012Y-92858388D01*
X161655932Y-92989888D01*
X161736121Y-93139912D01*
X161736122Y-93139916D01*
X161785504Y-93302705D01*
X161802178Y-93472000D01*
X161785504Y-93641295D01*
X161748971Y-93761727D01*
X161736121Y-93804088D01*
X161655932Y-93954112D01*
X161548012Y-94085612D01*
X161416512Y-94193532D01*
X161266488Y-94273721D01*
X161224127Y-94286571D01*
X161103695Y-94323104D01*
X161019112Y-94331435D01*
X160976821Y-94335600D01*
X160587179Y-94335600D01*
X160544888Y-94331435D01*
X160460305Y-94323104D01*
X160339873Y-94286571D01*
X160297512Y-94273721D01*
X160147488Y-94193532D01*
X160015988Y-94085612D01*
X159908068Y-93954112D01*
X159827879Y-93804088D01*
X159815029Y-93761727D01*
X159778496Y-93641295D01*
X159761822Y-93472000D01*
X159778496Y-93302705D01*
X159827878Y-93139916D01*
X159827879Y-93139912D01*
X159908068Y-92989888D01*
X160015988Y-92858388D01*
X160147488Y-92750468D01*
X160297512Y-92670279D01*
X160339873Y-92657429D01*
X160460305Y-92620896D01*
X160544888Y-92612565D01*
X160587179Y-92608400D01*
X160976821Y-92608400D01*
X161019112Y-92612565D01*
X161019112Y-92612565D01*
G37*
G36*
X164775345Y-90137258D02*
X164866129Y-90155316D01*
X165037162Y-90226160D01*
X165049139Y-90234163D01*
X165191090Y-90329012D01*
X165321988Y-90459910D01*
X165321990Y-90459913D01*
X165424840Y-90613838D01*
X165495684Y-90784871D01*
X165495684Y-90784873D01*
X165531800Y-90966436D01*
X165531800Y-91151564D01*
X165519567Y-91213062D01*
X165495684Y-91333129D01*
X165424840Y-91504162D01*
X165416006Y-91517383D01*
X165321988Y-91658090D01*
X165191090Y-91788988D01*
X165191087Y-91788990D01*
X165037162Y-91891840D01*
X164866129Y-91962684D01*
X164775346Y-91980742D01*
X164684564Y-91998800D01*
X164499436Y-91998800D01*
X164408655Y-91980742D01*
X164317871Y-91962684D01*
X164146838Y-91891840D01*
X163992913Y-91788990D01*
X163992910Y-91788988D01*
X163862012Y-91658090D01*
X163767994Y-91517383D01*
X163759160Y-91504162D01*
X163688316Y-91333129D01*
X163664433Y-91213062D01*
X163652200Y-91151564D01*
X163652200Y-90966436D01*
X163688316Y-90784873D01*
X163688316Y-90784871D01*
X163759160Y-90613838D01*
X163862010Y-90459913D01*
X163862012Y-90459910D01*
X163992910Y-90329012D01*
X164134861Y-90234163D01*
X164146838Y-90226160D01*
X164317871Y-90155316D01*
X164408655Y-90137258D01*
X164499436Y-90119200D01*
X164684564Y-90119200D01*
X164775345Y-90137258D01*
X164775345Y-90137258D01*
G37*
G36*
X145779112Y-90072565D02*
X145863695Y-90080896D01*
X145984127Y-90117429D01*
X146026488Y-90130279D01*
X146176512Y-90210468D01*
X146308012Y-90318388D01*
X146415932Y-90449888D01*
X146496121Y-90599912D01*
X146496122Y-90599916D01*
X146545504Y-90762705D01*
X146562178Y-90932000D01*
X146545504Y-91101295D01*
X146508971Y-91221727D01*
X146496121Y-91264088D01*
X146415932Y-91414112D01*
X146308012Y-91545612D01*
X146176512Y-91653532D01*
X146026488Y-91733721D01*
X145984127Y-91746571D01*
X145863695Y-91783104D01*
X145779112Y-91791435D01*
X145736821Y-91795600D01*
X145347179Y-91795600D01*
X145304888Y-91791435D01*
X145220305Y-91783104D01*
X145099873Y-91746571D01*
X145057512Y-91733721D01*
X144907488Y-91653532D01*
X144775988Y-91545612D01*
X144668068Y-91414112D01*
X144587879Y-91264088D01*
X144575029Y-91221727D01*
X144538496Y-91101295D01*
X144521822Y-90932000D01*
X144538496Y-90762705D01*
X144587878Y-90599916D01*
X144587879Y-90599912D01*
X144668068Y-90449888D01*
X144775988Y-90318388D01*
X144907488Y-90210468D01*
X145057512Y-90130279D01*
X145099873Y-90117429D01*
X145220305Y-90080896D01*
X145304888Y-90072565D01*
X145347179Y-90068400D01*
X145736821Y-90068400D01*
X145779112Y-90072565D01*
X145779112Y-90072565D01*
G37*
G36*
X161019112Y-90072565D02*
X161103695Y-90080896D01*
X161224127Y-90117429D01*
X161266488Y-90130279D01*
X161416512Y-90210468D01*
X161548012Y-90318388D01*
X161655932Y-90449888D01*
X161736121Y-90599912D01*
X161736122Y-90599916D01*
X161785504Y-90762705D01*
X161802178Y-90932000D01*
X161785504Y-91101295D01*
X161748971Y-91221727D01*
X161736121Y-91264088D01*
X161655932Y-91414112D01*
X161548012Y-91545612D01*
X161416512Y-91653532D01*
X161266488Y-91733721D01*
X161224127Y-91746571D01*
X161103695Y-91783104D01*
X161019112Y-91791435D01*
X160976821Y-91795600D01*
X160587179Y-91795600D01*
X160544888Y-91791435D01*
X160460305Y-91783104D01*
X160339873Y-91746571D01*
X160297512Y-91733721D01*
X160147488Y-91653532D01*
X160015988Y-91545612D01*
X159908068Y-91414112D01*
X159827879Y-91264088D01*
X159815029Y-91221727D01*
X159778496Y-91101295D01*
X159761822Y-90932000D01*
X159778496Y-90762705D01*
X159827878Y-90599916D01*
X159827879Y-90599912D01*
X159908068Y-90449888D01*
X160015988Y-90318388D01*
X160147488Y-90210468D01*
X160297512Y-90130279D01*
X160339873Y-90117429D01*
X160460305Y-90080896D01*
X160544888Y-90072565D01*
X160587179Y-90068400D01*
X160976821Y-90068400D01*
X161019112Y-90072565D01*
X161019112Y-90072565D01*
G37*
G36*
X155042913Y-90062596D02*
X155042916Y-90062597D01*
X155042917Y-90062597D01*
X155141880Y-90092617D01*
X155233086Y-90141367D01*
X155313027Y-90206973D01*
X155313028Y-90206975D01*
X155313030Y-90206976D01*
X155362232Y-90266929D01*
X155378633Y-90286914D01*
X155427383Y-90378119D01*
X155452194Y-90459910D01*
X155457404Y-90477086D01*
X155465000Y-90554208D01*
X155465000Y-91055791D01*
X155457404Y-91132914D01*
X155457403Y-91132917D01*
X155457403Y-91132918D01*
X155427383Y-91231881D01*
X155378633Y-91323086D01*
X155313027Y-91403027D01*
X155233086Y-91468633D01*
X155141881Y-91517383D01*
X155042918Y-91547403D01*
X155042917Y-91547403D01*
X155042914Y-91547404D01*
X154940000Y-91557540D01*
X154837087Y-91547404D01*
X154837084Y-91547403D01*
X154837083Y-91547403D01*
X154738120Y-91517383D01*
X154646915Y-91468633D01*
X154566974Y-91403027D01*
X154509608Y-91333127D01*
X154501366Y-91323084D01*
X154452618Y-91231883D01*
X154424618Y-91139580D01*
X154415240Y-91116941D01*
X154401626Y-91096567D01*
X154384299Y-91079240D01*
X154363925Y-91065626D01*
X154341286Y-91056248D01*
X154317252Y-91051468D01*
X154292748Y-91051468D01*
X154268714Y-91056248D01*
X154246075Y-91065626D01*
X154225701Y-91079240D01*
X154208374Y-91096567D01*
X154194760Y-91116941D01*
X154185382Y-91139579D01*
X154157383Y-91231881D01*
X154108633Y-91323086D01*
X154043027Y-91403027D01*
X153963086Y-91468633D01*
X153871881Y-91517383D01*
X153772918Y-91547403D01*
X153772917Y-91547403D01*
X153772914Y-91547404D01*
X153670000Y-91557540D01*
X153567087Y-91547404D01*
X153567084Y-91547403D01*
X153567083Y-91547403D01*
X153468120Y-91517383D01*
X153376915Y-91468633D01*
X153296974Y-91403027D01*
X153239608Y-91333127D01*
X153231366Y-91323084D01*
X153182617Y-91231882D01*
X153169618Y-91189029D01*
X153160240Y-91166389D01*
X153146626Y-91146015D01*
X153129299Y-91128688D01*
X153108925Y-91115074D01*
X153086286Y-91105696D01*
X153062252Y-91100916D01*
X153037748Y-91100916D01*
X153013715Y-91105696D01*
X152991075Y-91115074D01*
X152970701Y-91128688D01*
X152953374Y-91146015D01*
X152939760Y-91166389D01*
X152930382Y-91189028D01*
X152925602Y-91213062D01*
X152925000Y-91225314D01*
X152925000Y-91555000D01*
X151875000Y-91555000D01*
X151875000Y-90055000D01*
X152925000Y-90055000D01*
X152925000Y-90384687D01*
X152927402Y-90409073D01*
X152934515Y-90432522D01*
X152946066Y-90454133D01*
X152961612Y-90473075D01*
X152980554Y-90488621D01*
X153002165Y-90500172D01*
X153025614Y-90507285D01*
X153050000Y-90509687D01*
X153074386Y-90507285D01*
X153097835Y-90500172D01*
X153119446Y-90488621D01*
X153138388Y-90473075D01*
X153153934Y-90454133D01*
X153165485Y-90432522D01*
X153169618Y-90420972D01*
X153182617Y-90378119D01*
X153205513Y-90335283D01*
X153231367Y-90286914D01*
X153296973Y-90206973D01*
X153296975Y-90206972D01*
X153296976Y-90206970D01*
X153376913Y-90141368D01*
X153376912Y-90141368D01*
X153376914Y-90141367D01*
X153468119Y-90092617D01*
X153567082Y-90062597D01*
X153567083Y-90062597D01*
X153567086Y-90062596D01*
X153670000Y-90052460D01*
X153772913Y-90062596D01*
X153772916Y-90062597D01*
X153772917Y-90062597D01*
X153871880Y-90092617D01*
X153963086Y-90141367D01*
X154043027Y-90206973D01*
X154043028Y-90206975D01*
X154043030Y-90206976D01*
X154092232Y-90266929D01*
X154108633Y-90286914D01*
X154157383Y-90378119D01*
X154182194Y-90459910D01*
X154185382Y-90470420D01*
X154194760Y-90493059D01*
X154208374Y-90513433D01*
X154225701Y-90530760D01*
X154246075Y-90544374D01*
X154268714Y-90553752D01*
X154292748Y-90558532D01*
X154317252Y-90558532D01*
X154341286Y-90553752D01*
X154363925Y-90544374D01*
X154384299Y-90530760D01*
X154401626Y-90513433D01*
X154415240Y-90493059D01*
X154424617Y-90470420D01*
X154452616Y-90378122D01*
X154452619Y-90378117D01*
X154501367Y-90286914D01*
X154566973Y-90206973D01*
X154566975Y-90206972D01*
X154566976Y-90206970D01*
X154646913Y-90141368D01*
X154646912Y-90141368D01*
X154646914Y-90141367D01*
X154738119Y-90092617D01*
X154837082Y-90062597D01*
X154837083Y-90062597D01*
X154837086Y-90062596D01*
X154940000Y-90052460D01*
X155042913Y-90062596D01*
X155042913Y-90062596D01*
G37*
G36*
X166680346Y-88867258D02*
X166771129Y-88885316D01*
X166942162Y-88956160D01*
X167094009Y-89057621D01*
X167096090Y-89059012D01*
X167226988Y-89189910D01*
X167226990Y-89189913D01*
X167329840Y-89343838D01*
X167400684Y-89514871D01*
X167436800Y-89696438D01*
X167436800Y-89881562D01*
X167400684Y-90063129D01*
X167329840Y-90234162D01*
X167294592Y-90286914D01*
X167226988Y-90388090D01*
X167096090Y-90518988D01*
X167096087Y-90518990D01*
X166942162Y-90621840D01*
X166771129Y-90692684D01*
X166680345Y-90710742D01*
X166589564Y-90728800D01*
X166404436Y-90728800D01*
X166313655Y-90710742D01*
X166222871Y-90692684D01*
X166051838Y-90621840D01*
X165897913Y-90518990D01*
X165897910Y-90518988D01*
X165767012Y-90388090D01*
X165699408Y-90286914D01*
X165664160Y-90234162D01*
X165593316Y-90063129D01*
X165557200Y-89881562D01*
X165557200Y-89696438D01*
X165593316Y-89514871D01*
X165664160Y-89343838D01*
X165767010Y-89189913D01*
X165767012Y-89189910D01*
X165897910Y-89059012D01*
X165899991Y-89057621D01*
X166051838Y-88956160D01*
X166222871Y-88885316D01*
X166313654Y-88867258D01*
X166404436Y-88849200D01*
X166589564Y-88849200D01*
X166680346Y-88867258D01*
X166680346Y-88867258D01*
G37*
G36*
X164775345Y-87597258D02*
X164866129Y-87615316D01*
X165037162Y-87686160D01*
X165037163Y-87686161D01*
X165191090Y-87789012D01*
X165321988Y-87919910D01*
X165321990Y-87919913D01*
X165424840Y-88073838D01*
X165495684Y-88244871D01*
X165531800Y-88426438D01*
X165531800Y-88611562D01*
X165495684Y-88793129D01*
X165424840Y-88964162D01*
X165424839Y-88964163D01*
X165321988Y-89118090D01*
X165191090Y-89248988D01*
X165191087Y-89248990D01*
X165037162Y-89351840D01*
X164866129Y-89422684D01*
X164775345Y-89440742D01*
X164684564Y-89458800D01*
X164499436Y-89458800D01*
X164408655Y-89440742D01*
X164317871Y-89422684D01*
X164146838Y-89351840D01*
X163992913Y-89248990D01*
X163992910Y-89248988D01*
X163862012Y-89118090D01*
X163759161Y-88964163D01*
X163759160Y-88964162D01*
X163688316Y-88793129D01*
X163652200Y-88611562D01*
X163652200Y-88426438D01*
X163688316Y-88244871D01*
X163759160Y-88073838D01*
X163862010Y-87919913D01*
X163862012Y-87919910D01*
X163992910Y-87789012D01*
X164146837Y-87686161D01*
X164146838Y-87686160D01*
X164317871Y-87615316D01*
X164408654Y-87597258D01*
X164499436Y-87579200D01*
X164684564Y-87579200D01*
X164775345Y-87597258D01*
X164775345Y-87597258D01*
G37*
G36*
X161019112Y-87532565D02*
X161103695Y-87540896D01*
X161224127Y-87577429D01*
X161266488Y-87590279D01*
X161416512Y-87670468D01*
X161548012Y-87778388D01*
X161655932Y-87909888D01*
X161736121Y-88059912D01*
X161736122Y-88059916D01*
X161785504Y-88222705D01*
X161802178Y-88392000D01*
X161785504Y-88561295D01*
X161770255Y-88611564D01*
X161736121Y-88724088D01*
X161655932Y-88874112D01*
X161548012Y-89005612D01*
X161416512Y-89113532D01*
X161266488Y-89193721D01*
X161224127Y-89206571D01*
X161103695Y-89243104D01*
X161019112Y-89251435D01*
X160976821Y-89255600D01*
X160587179Y-89255600D01*
X160544888Y-89251435D01*
X160460305Y-89243104D01*
X160339873Y-89206571D01*
X160297512Y-89193721D01*
X160147488Y-89113532D01*
X160015988Y-89005612D01*
X159908068Y-88874112D01*
X159827879Y-88724088D01*
X159793745Y-88611564D01*
X159778496Y-88561295D01*
X159761822Y-88392000D01*
X159778496Y-88222705D01*
X159827878Y-88059916D01*
X159827879Y-88059912D01*
X159908068Y-87909888D01*
X160015988Y-87778388D01*
X160147488Y-87670468D01*
X160297512Y-87590279D01*
X160339873Y-87577429D01*
X160460305Y-87540896D01*
X160544888Y-87532565D01*
X160587179Y-87528400D01*
X160976821Y-87528400D01*
X161019112Y-87532565D01*
X161019112Y-87532565D01*
G37*
G36*
X145779112Y-87532565D02*
X145863695Y-87540896D01*
X145984127Y-87577429D01*
X146026488Y-87590279D01*
X146176512Y-87670468D01*
X146308012Y-87778388D01*
X146415932Y-87909888D01*
X146496121Y-88059912D01*
X146496122Y-88059916D01*
X146545504Y-88222705D01*
X146562178Y-88392000D01*
X146545504Y-88561295D01*
X146530255Y-88611564D01*
X146496121Y-88724088D01*
X146415932Y-88874112D01*
X146308012Y-89005612D01*
X146176512Y-89113532D01*
X146026488Y-89193721D01*
X145984127Y-89206571D01*
X145863695Y-89243104D01*
X145779112Y-89251435D01*
X145736821Y-89255600D01*
X145347179Y-89255600D01*
X145304888Y-89251435D01*
X145220305Y-89243104D01*
X145099873Y-89206571D01*
X145057512Y-89193721D01*
X144907488Y-89113532D01*
X144775988Y-89005612D01*
X144668068Y-88874112D01*
X144587879Y-88724088D01*
X144553745Y-88611564D01*
X144538496Y-88561295D01*
X144521822Y-88392000D01*
X144538496Y-88222705D01*
X144587878Y-88059916D01*
X144587879Y-88059912D01*
X144668068Y-87909888D01*
X144775988Y-87778388D01*
X144907488Y-87670468D01*
X145057512Y-87590279D01*
X145099873Y-87577429D01*
X145220305Y-87540896D01*
X145304888Y-87532565D01*
X145347179Y-87528400D01*
X145736821Y-87528400D01*
X145779112Y-87532565D01*
X145779112Y-87532565D01*
G37*
G36*
X145779112Y-84992565D02*
X145863695Y-85000896D01*
X145984127Y-85037429D01*
X146026488Y-85050279D01*
X146176512Y-85130468D01*
X146308012Y-85238388D01*
X146415932Y-85369888D01*
X146496121Y-85519912D01*
X146496122Y-85519916D01*
X146545504Y-85682705D01*
X146562178Y-85852000D01*
X146545504Y-86021295D01*
X146508971Y-86141727D01*
X146496121Y-86184088D01*
X146415932Y-86334112D01*
X146308012Y-86465612D01*
X146176512Y-86573532D01*
X146026488Y-86653721D01*
X145984127Y-86666571D01*
X145863695Y-86703104D01*
X145779112Y-86711435D01*
X145736821Y-86715600D01*
X145347179Y-86715600D01*
X145304888Y-86711435D01*
X145220305Y-86703104D01*
X145099873Y-86666571D01*
X145057512Y-86653721D01*
X144907488Y-86573532D01*
X144775988Y-86465612D01*
X144668068Y-86334112D01*
X144587879Y-86184088D01*
X144575029Y-86141727D01*
X144538496Y-86021295D01*
X144521822Y-85852000D01*
X144538496Y-85682705D01*
X144587878Y-85519916D01*
X144587879Y-85519912D01*
X144668068Y-85369888D01*
X144775988Y-85238388D01*
X144907488Y-85130468D01*
X145057512Y-85050279D01*
X145099873Y-85037429D01*
X145220305Y-85000896D01*
X145304888Y-84992565D01*
X145347179Y-84988400D01*
X145736821Y-84988400D01*
X145779112Y-84992565D01*
X145779112Y-84992565D01*
G37*
G36*
X161019112Y-84992565D02*
X161103695Y-85000896D01*
X161224127Y-85037429D01*
X161266488Y-85050279D01*
X161416512Y-85130468D01*
X161548012Y-85238388D01*
X161655932Y-85369888D01*
X161736121Y-85519912D01*
X161736122Y-85519916D01*
X161785504Y-85682705D01*
X161802178Y-85852000D01*
X161785504Y-86021295D01*
X161748971Y-86141727D01*
X161736121Y-86184088D01*
X161655932Y-86334112D01*
X161548012Y-86465612D01*
X161416512Y-86573532D01*
X161266488Y-86653721D01*
X161224127Y-86666571D01*
X161103695Y-86703104D01*
X161019112Y-86711435D01*
X160976821Y-86715600D01*
X160587179Y-86715600D01*
X160544888Y-86711435D01*
X160460305Y-86703104D01*
X160339873Y-86666571D01*
X160297512Y-86653721D01*
X160147488Y-86573532D01*
X160015988Y-86465612D01*
X159908068Y-86334112D01*
X159827879Y-86184088D01*
X159815029Y-86141727D01*
X159778496Y-86021295D01*
X159761822Y-85852000D01*
X159778496Y-85682705D01*
X159827878Y-85519916D01*
X159827879Y-85519912D01*
X159908068Y-85369888D01*
X160015988Y-85238388D01*
X160147488Y-85130468D01*
X160297512Y-85050279D01*
X160339873Y-85037429D01*
X160460305Y-85000896D01*
X160544888Y-84992565D01*
X160587179Y-84988400D01*
X160976821Y-84988400D01*
X161019112Y-84992565D01*
X161019112Y-84992565D01*
G37*
G36*
X148043639Y-83624916D02*
X148250986Y-83687815D01*
X148250988Y-83687816D01*
X148442084Y-83789958D01*
X148609581Y-83927419D01*
X148747042Y-84094916D01*
X148849184Y-84286012D01*
X148912084Y-84493362D01*
X148933322Y-84709000D01*
X148912084Y-84924638D01*
X148849184Y-85131988D01*
X148747042Y-85323084D01*
X148609581Y-85490581D01*
X148442084Y-85628042D01*
X148250988Y-85730184D01*
X148250986Y-85730185D01*
X148043639Y-85793084D01*
X147882038Y-85809000D01*
X147773962Y-85809000D01*
X147612361Y-85793084D01*
X147405014Y-85730185D01*
X147405012Y-85730184D01*
X147213916Y-85628042D01*
X147046419Y-85490581D01*
X146908958Y-85323084D01*
X146806816Y-85131988D01*
X146743916Y-84924638D01*
X146722678Y-84709000D01*
X146743916Y-84493362D01*
X146806816Y-84286012D01*
X146908958Y-84094916D01*
X147046419Y-83927419D01*
X147213916Y-83789958D01*
X147405012Y-83687816D01*
X147405014Y-83687815D01*
X147612361Y-83624916D01*
X147773962Y-83609000D01*
X147882038Y-83609000D01*
X148043639Y-83624916D01*
X148043639Y-83624916D01*
G37*
G36*
X159088000Y-85809000D02*
X156888000Y-85809000D01*
X156888000Y-83609000D01*
X159088000Y-83609000D01*
X159088000Y-85809000D01*
X159088000Y-85809000D01*
G37*
G36*
X161019112Y-82452565D02*
X161103695Y-82460896D01*
X161224127Y-82497429D01*
X161266488Y-82510279D01*
X161416512Y-82590468D01*
X161548012Y-82698388D01*
X161655932Y-82829888D01*
X161736121Y-82979912D01*
X161736122Y-82979916D01*
X161785504Y-83142705D01*
X161802178Y-83312000D01*
X161785504Y-83481295D01*
X161748971Y-83601727D01*
X161736121Y-83644088D01*
X161655932Y-83794112D01*
X161548012Y-83925612D01*
X161416512Y-84033532D01*
X161266488Y-84113721D01*
X161224127Y-84126571D01*
X161103695Y-84163104D01*
X161019112Y-84171435D01*
X160976821Y-84175600D01*
X160587179Y-84175600D01*
X160544888Y-84171435D01*
X160460305Y-84163104D01*
X160339873Y-84126571D01*
X160297512Y-84113721D01*
X160147488Y-84033532D01*
X160015988Y-83925612D01*
X159908068Y-83794112D01*
X159827879Y-83644088D01*
X159815029Y-83601727D01*
X159778496Y-83481295D01*
X159761822Y-83312000D01*
X159778496Y-83142705D01*
X159827878Y-82979916D01*
X159827879Y-82979912D01*
X159908068Y-82829888D01*
X160015988Y-82698388D01*
X160147488Y-82590468D01*
X160297512Y-82510279D01*
X160339873Y-82497429D01*
X160460305Y-82460896D01*
X160544888Y-82452565D01*
X160587179Y-82448400D01*
X160976821Y-82448400D01*
X161019112Y-82452565D01*
X161019112Y-82452565D01*
G37*
G36*
X145779112Y-82452565D02*
X145863695Y-82460896D01*
X145984127Y-82497429D01*
X146026488Y-82510279D01*
X146176512Y-82590468D01*
X146308012Y-82698388D01*
X146415932Y-82829888D01*
X146496121Y-82979912D01*
X146496122Y-82979916D01*
X146545504Y-83142705D01*
X146562178Y-83312000D01*
X146545504Y-83481295D01*
X146508971Y-83601727D01*
X146496121Y-83644088D01*
X146415932Y-83794112D01*
X146308012Y-83925612D01*
X146176512Y-84033532D01*
X146026488Y-84113721D01*
X145984127Y-84126571D01*
X145863695Y-84163104D01*
X145779112Y-84171435D01*
X145736821Y-84175600D01*
X145347179Y-84175600D01*
X145304888Y-84171435D01*
X145220305Y-84163104D01*
X145099873Y-84126571D01*
X145057512Y-84113721D01*
X144907488Y-84033532D01*
X144775988Y-83925612D01*
X144668068Y-83794112D01*
X144587879Y-83644088D01*
X144575029Y-83601727D01*
X144538496Y-83481295D01*
X144521822Y-83312000D01*
X144538496Y-83142705D01*
X144587878Y-82979916D01*
X144587879Y-82979912D01*
X144668068Y-82829888D01*
X144775988Y-82698388D01*
X144907488Y-82590468D01*
X145057512Y-82510279D01*
X145099873Y-82497429D01*
X145220305Y-82460896D01*
X145304888Y-82452565D01*
X145347179Y-82448400D01*
X145736821Y-82448400D01*
X145779112Y-82452565D01*
X145779112Y-82452565D01*
G37*
G36*
X166407538Y-80445919D02*
X166589437Y-80521264D01*
X166753141Y-80630648D01*
X166892352Y-80769859D01*
X167001736Y-80933563D01*
X167077081Y-81115462D01*
X167115490Y-81308557D01*
X167115490Y-81505443D01*
X167077081Y-81698538D01*
X167001736Y-81880437D01*
X166892352Y-82044141D01*
X166753141Y-82183352D01*
X166589437Y-82292736D01*
X166407538Y-82368081D01*
X166214443Y-82406490D01*
X166017557Y-82406490D01*
X165824462Y-82368081D01*
X165642563Y-82292736D01*
X165478859Y-82183352D01*
X165339648Y-82044141D01*
X165230264Y-81880437D01*
X165154919Y-81698538D01*
X165116510Y-81505443D01*
X165116510Y-81308557D01*
X165154919Y-81115462D01*
X165230264Y-80933563D01*
X165339648Y-80769859D01*
X165478859Y-80630648D01*
X165642563Y-80521264D01*
X165824462Y-80445919D01*
X166017557Y-80407510D01*
X166214443Y-80407510D01*
X166407538Y-80445919D01*
X166407538Y-80445919D01*
G37*
G36*
X161019112Y-79912565D02*
X161103695Y-79920896D01*
X161224127Y-79957429D01*
X161266488Y-79970279D01*
X161416512Y-80050468D01*
X161548012Y-80158388D01*
X161655932Y-80289888D01*
X161736121Y-80439912D01*
X161736122Y-80439916D01*
X161785504Y-80602705D01*
X161802178Y-80772000D01*
X161785504Y-80941295D01*
X161760433Y-81023941D01*
X161736121Y-81104088D01*
X161655932Y-81254112D01*
X161548012Y-81385612D01*
X161416512Y-81493532D01*
X161266488Y-81573721D01*
X161224127Y-81586571D01*
X161103695Y-81623104D01*
X161019112Y-81631435D01*
X160976821Y-81635600D01*
X160587179Y-81635600D01*
X160544888Y-81631435D01*
X160460305Y-81623104D01*
X160339873Y-81586571D01*
X160297512Y-81573721D01*
X160147488Y-81493532D01*
X160015988Y-81385612D01*
X159908068Y-81254112D01*
X159827879Y-81104088D01*
X159803567Y-81023941D01*
X159778496Y-80941295D01*
X159761822Y-80772000D01*
X159778496Y-80602705D01*
X159827878Y-80439916D01*
X159827879Y-80439912D01*
X159908068Y-80289888D01*
X160015988Y-80158388D01*
X160147488Y-80050468D01*
X160297512Y-79970279D01*
X160339873Y-79957429D01*
X160460305Y-79920896D01*
X160544888Y-79912565D01*
X160587179Y-79908400D01*
X160976821Y-79908400D01*
X161019112Y-79912565D01*
X161019112Y-79912565D01*
G37*
G36*
X145779112Y-79912565D02*
X145863695Y-79920896D01*
X145984127Y-79957429D01*
X146026488Y-79970279D01*
X146176512Y-80050468D01*
X146308012Y-80158388D01*
X146415932Y-80289888D01*
X146496121Y-80439912D01*
X146496122Y-80439916D01*
X146545504Y-80602705D01*
X146562178Y-80772000D01*
X146545504Y-80941295D01*
X146520433Y-81023941D01*
X146496121Y-81104088D01*
X146415932Y-81254112D01*
X146308012Y-81385612D01*
X146176512Y-81493532D01*
X146026488Y-81573721D01*
X145984127Y-81586571D01*
X145863695Y-81623104D01*
X145779112Y-81631435D01*
X145736821Y-81635600D01*
X145347179Y-81635600D01*
X145304888Y-81631435D01*
X145220305Y-81623104D01*
X145099873Y-81586571D01*
X145057512Y-81573721D01*
X144907488Y-81493532D01*
X144775988Y-81385612D01*
X144668068Y-81254112D01*
X144587879Y-81104088D01*
X144563567Y-81023941D01*
X144538496Y-80941295D01*
X144521822Y-80772000D01*
X144538496Y-80602705D01*
X144587878Y-80439916D01*
X144587879Y-80439912D01*
X144668068Y-80289888D01*
X144775988Y-80158388D01*
X144907488Y-80050468D01*
X145057512Y-79970279D01*
X145099873Y-79957429D01*
X145220305Y-79920896D01*
X145304888Y-79912565D01*
X145347179Y-79908400D01*
X145736821Y-79908400D01*
X145779112Y-79912565D01*
X145779112Y-79912565D01*
G37*
G36*
X154665352Y-79875743D02*
X154810941Y-79936048D01*
X154941973Y-80023601D01*
X155053399Y-80135027D01*
X155140952Y-80266059D01*
X155201257Y-80411648D01*
X155232000Y-80566205D01*
X155232000Y-80723795D01*
X155201257Y-80878352D01*
X155140952Y-81023941D01*
X155053399Y-81154973D01*
X154941973Y-81266399D01*
X154810941Y-81353952D01*
X154665352Y-81414257D01*
X154510795Y-81445000D01*
X154353205Y-81445000D01*
X154198648Y-81414257D01*
X154053059Y-81353952D01*
X153922027Y-81266399D01*
X153810601Y-81154973D01*
X153723048Y-81023941D01*
X153662743Y-80878352D01*
X153632000Y-80723795D01*
X153632000Y-80566205D01*
X153662743Y-80411648D01*
X153723048Y-80266059D01*
X153810601Y-80135027D01*
X153922027Y-80023601D01*
X154053059Y-79936048D01*
X154198648Y-79875743D01*
X154353205Y-79845000D01*
X154510795Y-79845000D01*
X154665352Y-79875743D01*
X154665352Y-79875743D01*
G37*
G36*
X152165352Y-79875743D02*
X152310941Y-79936048D01*
X152441973Y-80023601D01*
X152553399Y-80135027D01*
X152640952Y-80266059D01*
X152701257Y-80411648D01*
X152732000Y-80566205D01*
X152732000Y-80723795D01*
X152701257Y-80878352D01*
X152640952Y-81023941D01*
X152553399Y-81154973D01*
X152441973Y-81266399D01*
X152310941Y-81353952D01*
X152165352Y-81414257D01*
X152010795Y-81445000D01*
X151853205Y-81445000D01*
X151698648Y-81414257D01*
X151553059Y-81353952D01*
X151422027Y-81266399D01*
X151310601Y-81154973D01*
X151223048Y-81023941D01*
X151162743Y-80878352D01*
X151132000Y-80723795D01*
X151132000Y-80566205D01*
X151162743Y-80411648D01*
X151223048Y-80266059D01*
X151310601Y-80135027D01*
X151422027Y-80023601D01*
X151553059Y-79936048D01*
X151698648Y-79875743D01*
X151853205Y-79845000D01*
X152010795Y-79845000D01*
X152165352Y-79875743D01*
X152165352Y-79875743D01*
G37*
G36*
X166407538Y-77270919D02*
X166589437Y-77346264D01*
X166753141Y-77455648D01*
X166892352Y-77594859D01*
X167001736Y-77758563D01*
X167077081Y-77940462D01*
X167115490Y-78133557D01*
X167115490Y-78330443D01*
X167077081Y-78523538D01*
X167001736Y-78705437D01*
X166892352Y-78869141D01*
X166753141Y-79008352D01*
X166589437Y-79117736D01*
X166407538Y-79193081D01*
X166214443Y-79231490D01*
X166017557Y-79231490D01*
X165824462Y-79193081D01*
X165642563Y-79117736D01*
X165478859Y-79008352D01*
X165339648Y-78869141D01*
X165230264Y-78705437D01*
X165154919Y-78523538D01*
X165116510Y-78330443D01*
X165116510Y-78133557D01*
X165154919Y-77940462D01*
X165230264Y-77758563D01*
X165339648Y-77594859D01*
X165478859Y-77455648D01*
X165642563Y-77346264D01*
X165824462Y-77270919D01*
X166017557Y-77232510D01*
X166214443Y-77232510D01*
X166407538Y-77270919D01*
X166407538Y-77270919D01*
G37*
G36*
X145779112Y-77372565D02*
X145863695Y-77380896D01*
X145984127Y-77417429D01*
X146026488Y-77430279D01*
X146176512Y-77510468D01*
X146308012Y-77618388D01*
X146415932Y-77749888D01*
X146496121Y-77899912D01*
X146496122Y-77899916D01*
X146545504Y-78062705D01*
X146562178Y-78232000D01*
X146545504Y-78401295D01*
X146508971Y-78521727D01*
X146496121Y-78564088D01*
X146415932Y-78714112D01*
X146308012Y-78845612D01*
X146176512Y-78953532D01*
X146026488Y-79033721D01*
X145984127Y-79046571D01*
X145863695Y-79083104D01*
X145779112Y-79091435D01*
X145736821Y-79095600D01*
X145347179Y-79095600D01*
X145304888Y-79091435D01*
X145220305Y-79083104D01*
X145099873Y-79046571D01*
X145057512Y-79033721D01*
X144907488Y-78953532D01*
X144775988Y-78845612D01*
X144668068Y-78714112D01*
X144587879Y-78564088D01*
X144575029Y-78521727D01*
X144538496Y-78401295D01*
X144521822Y-78232000D01*
X144538496Y-78062705D01*
X144587878Y-77899916D01*
X144587879Y-77899912D01*
X144668068Y-77749888D01*
X144775988Y-77618388D01*
X144907488Y-77510468D01*
X145057512Y-77430279D01*
X145099873Y-77417429D01*
X145220305Y-77380896D01*
X145304888Y-77372565D01*
X145347179Y-77368400D01*
X145736821Y-77368400D01*
X145779112Y-77372565D01*
X145779112Y-77372565D01*
G37*
G36*
X161019112Y-77372565D02*
X161103695Y-77380896D01*
X161224127Y-77417429D01*
X161266488Y-77430279D01*
X161416512Y-77510468D01*
X161548012Y-77618388D01*
X161655932Y-77749888D01*
X161736121Y-77899912D01*
X161736122Y-77899916D01*
X161785504Y-78062705D01*
X161802178Y-78232000D01*
X161785504Y-78401295D01*
X161748971Y-78521727D01*
X161736121Y-78564088D01*
X161655932Y-78714112D01*
X161548012Y-78845612D01*
X161416512Y-78953532D01*
X161266488Y-79033721D01*
X161224127Y-79046571D01*
X161103695Y-79083104D01*
X161019112Y-79091435D01*
X160976821Y-79095600D01*
X160587179Y-79095600D01*
X160544888Y-79091435D01*
X160460305Y-79083104D01*
X160339873Y-79046571D01*
X160297512Y-79033721D01*
X160147488Y-78953532D01*
X160015988Y-78845612D01*
X159908068Y-78714112D01*
X159827879Y-78564088D01*
X159815029Y-78521727D01*
X159778496Y-78401295D01*
X159761822Y-78232000D01*
X159778496Y-78062705D01*
X159827878Y-77899916D01*
X159827879Y-77899912D01*
X159908068Y-77749888D01*
X160015988Y-77618388D01*
X160147488Y-77510468D01*
X160297512Y-77430279D01*
X160339873Y-77417429D01*
X160460305Y-77380896D01*
X160544888Y-77372565D01*
X160587179Y-77368400D01*
X160976821Y-77368400D01*
X161019112Y-77372565D01*
X161019112Y-77372565D01*
G37*
G36*
X155939490Y-77580490D02*
X153940510Y-77580490D01*
X153940510Y-75581510D01*
X155939490Y-75581510D01*
X155939490Y-77580490D01*
X155939490Y-77580490D01*
G37*
G36*
X151421538Y-75619919D02*
X151603437Y-75695264D01*
X151767141Y-75804648D01*
X151906352Y-75943859D01*
X152015736Y-76107563D01*
X152091081Y-76289462D01*
X152129490Y-76482557D01*
X152129490Y-76679443D01*
X152091081Y-76872538D01*
X152015736Y-77054437D01*
X151906352Y-77218141D01*
X151767141Y-77357352D01*
X151603437Y-77466736D01*
X151421538Y-77542081D01*
X151228443Y-77580490D01*
X151031557Y-77580490D01*
X150838462Y-77542081D01*
X150656563Y-77466736D01*
X150492859Y-77357352D01*
X150353648Y-77218141D01*
X150244264Y-77054437D01*
X150168919Y-76872538D01*
X150130510Y-76679443D01*
X150130510Y-76482557D01*
X150168919Y-76289462D01*
X150244264Y-76107563D01*
X150353648Y-75943859D01*
X150492859Y-75804648D01*
X150656563Y-75695264D01*
X150838462Y-75619919D01*
X151031557Y-75581510D01*
X151228443Y-75581510D01*
X151421538Y-75619919D01*
X151421538Y-75619919D01*
G37*
G36*
X145779112Y-74832565D02*
X145863695Y-74840896D01*
X145984127Y-74877429D01*
X146026488Y-74890279D01*
X146176512Y-74970468D01*
X146308012Y-75078388D01*
X146415932Y-75209888D01*
X146496121Y-75359912D01*
X146496122Y-75359916D01*
X146545504Y-75522705D01*
X146562178Y-75692000D01*
X146545504Y-75861295D01*
X146520458Y-75943859D01*
X146496121Y-76024088D01*
X146415932Y-76174112D01*
X146308012Y-76305612D01*
X146176512Y-76413532D01*
X146026488Y-76493721D01*
X145984127Y-76506571D01*
X145863695Y-76543104D01*
X145779112Y-76551435D01*
X145736821Y-76555600D01*
X145347179Y-76555600D01*
X145304888Y-76551435D01*
X145220305Y-76543104D01*
X145099873Y-76506571D01*
X145057512Y-76493721D01*
X144907488Y-76413532D01*
X144775988Y-76305612D01*
X144668068Y-76174112D01*
X144587879Y-76024088D01*
X144563542Y-75943859D01*
X144538496Y-75861295D01*
X144521822Y-75692000D01*
X144538496Y-75522705D01*
X144587878Y-75359916D01*
X144587879Y-75359912D01*
X144668068Y-75209888D01*
X144775988Y-75078388D01*
X144907488Y-74970468D01*
X145057512Y-74890279D01*
X145099873Y-74877429D01*
X145220305Y-74840896D01*
X145304888Y-74832565D01*
X145347179Y-74828400D01*
X145736821Y-74828400D01*
X145779112Y-74832565D01*
X145779112Y-74832565D01*
G37*
G36*
X161019112Y-74832565D02*
X161103695Y-74840896D01*
X161224127Y-74877429D01*
X161266488Y-74890279D01*
X161416512Y-74970468D01*
X161548012Y-75078388D01*
X161655932Y-75209888D01*
X161736121Y-75359912D01*
X161736122Y-75359916D01*
X161785504Y-75522705D01*
X161802178Y-75692000D01*
X161785504Y-75861295D01*
X161760458Y-75943859D01*
X161736121Y-76024088D01*
X161655932Y-76174112D01*
X161548012Y-76305612D01*
X161416512Y-76413532D01*
X161266488Y-76493721D01*
X161224127Y-76506571D01*
X161103695Y-76543104D01*
X161019112Y-76551435D01*
X160976821Y-76555600D01*
X160587179Y-76555600D01*
X160544888Y-76551435D01*
X160460305Y-76543104D01*
X160339873Y-76506571D01*
X160297512Y-76493721D01*
X160147488Y-76413532D01*
X160015988Y-76305612D01*
X159908068Y-76174112D01*
X159827879Y-76024088D01*
X159803542Y-75943859D01*
X159778496Y-75861295D01*
X159761822Y-75692000D01*
X159778496Y-75522705D01*
X159827878Y-75359916D01*
X159827879Y-75359912D01*
X159908068Y-75209888D01*
X160015988Y-75078388D01*
X160147488Y-74970468D01*
X160297512Y-74890279D01*
X160339873Y-74877429D01*
X160460305Y-74840896D01*
X160544888Y-74832565D01*
X160587179Y-74828400D01*
X160976821Y-74828400D01*
X161019112Y-74832565D01*
X161019112Y-74832565D01*
G37*
G36*
X166407538Y-74222919D02*
X166589437Y-74298264D01*
X166753141Y-74407648D01*
X166892352Y-74546859D01*
X167001736Y-74710563D01*
X167077081Y-74892462D01*
X167115490Y-75085557D01*
X167115490Y-75282443D01*
X167077081Y-75475538D01*
X167001736Y-75657437D01*
X166892352Y-75821141D01*
X166753141Y-75960352D01*
X166589437Y-76069736D01*
X166407538Y-76145081D01*
X166214443Y-76183490D01*
X166017557Y-76183490D01*
X165824462Y-76145081D01*
X165642563Y-76069736D01*
X165478859Y-75960352D01*
X165339648Y-75821141D01*
X165230264Y-75657437D01*
X165154919Y-75475538D01*
X165116510Y-75282443D01*
X165116510Y-75085557D01*
X165154919Y-74892462D01*
X165230264Y-74710563D01*
X165339648Y-74546859D01*
X165478859Y-74407648D01*
X165642563Y-74298264D01*
X165824462Y-74222919D01*
X166017557Y-74184510D01*
X166214443Y-74184510D01*
X166407538Y-74222919D01*
X166407538Y-74222919D01*
G37*
G36*
X161019112Y-72292565D02*
X161103695Y-72300896D01*
X161183154Y-72325000D01*
X161266488Y-72350279D01*
X161416512Y-72430468D01*
X161548012Y-72538388D01*
X161655932Y-72669888D01*
X161736121Y-72819912D01*
X161736396Y-72820818D01*
X161785504Y-72982705D01*
X161802178Y-73152000D01*
X161785504Y-73321295D01*
X161774802Y-73356574D01*
X161736121Y-73484088D01*
X161655932Y-73634112D01*
X161548012Y-73765612D01*
X161416512Y-73873532D01*
X161266488Y-73953721D01*
X161224127Y-73966571D01*
X161103695Y-74003104D01*
X161019112Y-74011435D01*
X160976821Y-74015600D01*
X160587179Y-74015600D01*
X160544888Y-74011435D01*
X160460305Y-74003104D01*
X160339873Y-73966571D01*
X160297512Y-73953721D01*
X160147488Y-73873532D01*
X160015988Y-73765612D01*
X159908068Y-73634112D01*
X159827879Y-73484088D01*
X159789198Y-73356574D01*
X159778496Y-73321295D01*
X159761822Y-73152000D01*
X159778496Y-72982705D01*
X159827604Y-72820818D01*
X159827879Y-72819912D01*
X159908068Y-72669888D01*
X160015988Y-72538388D01*
X160147488Y-72430468D01*
X160297512Y-72350279D01*
X160380846Y-72325000D01*
X160460305Y-72300896D01*
X160544888Y-72292565D01*
X160587179Y-72288400D01*
X160976821Y-72288400D01*
X161019112Y-72292565D01*
X161019112Y-72292565D01*
G37*
G36*
X145779112Y-72292565D02*
X145863695Y-72300896D01*
X145943154Y-72325000D01*
X146026488Y-72350279D01*
X146176512Y-72430468D01*
X146308012Y-72538388D01*
X146415932Y-72669888D01*
X146496121Y-72819912D01*
X146496396Y-72820818D01*
X146545504Y-72982705D01*
X146562178Y-73152000D01*
X146545504Y-73321295D01*
X146534802Y-73356574D01*
X146496121Y-73484088D01*
X146415932Y-73634112D01*
X146308012Y-73765612D01*
X146176512Y-73873532D01*
X146026488Y-73953721D01*
X145984127Y-73966571D01*
X145863695Y-74003104D01*
X145779112Y-74011435D01*
X145736821Y-74015600D01*
X145347179Y-74015600D01*
X145304888Y-74011435D01*
X145220305Y-74003104D01*
X145099873Y-73966571D01*
X145057512Y-73953721D01*
X144907488Y-73873532D01*
X144775988Y-73765612D01*
X144668068Y-73634112D01*
X144587879Y-73484088D01*
X144549198Y-73356574D01*
X144538496Y-73321295D01*
X144521822Y-73152000D01*
X144538496Y-72982705D01*
X144587604Y-72820818D01*
X144587879Y-72819912D01*
X144668068Y-72669888D01*
X144775988Y-72538388D01*
X144907488Y-72430468D01*
X145057512Y-72350279D01*
X145140846Y-72325000D01*
X145220305Y-72300896D01*
X145304888Y-72292565D01*
X145347179Y-72288400D01*
X145736821Y-72288400D01*
X145779112Y-72292565D01*
X145779112Y-72292565D01*
G37*
G36*
X151080183Y-72351900D02*
X151207574Y-72404668D01*
X151322224Y-72481274D01*
X151419726Y-72578776D01*
X151496332Y-72693426D01*
X151549100Y-72820817D01*
X151576000Y-72956055D01*
X151576000Y-73093945D01*
X151549100Y-73229183D01*
X151496332Y-73356574D01*
X151419725Y-73471225D01*
X151322225Y-73568725D01*
X151207574Y-73645332D01*
X151080183Y-73698100D01*
X150944945Y-73725000D01*
X150807055Y-73725000D01*
X150671817Y-73698100D01*
X150544426Y-73645332D01*
X150429775Y-73568725D01*
X150332275Y-73471225D01*
X150255668Y-73356574D01*
X150202900Y-73229183D01*
X150176000Y-73093945D01*
X150176000Y-72956055D01*
X150202900Y-72820817D01*
X150255668Y-72693426D01*
X150332274Y-72578776D01*
X150429776Y-72481274D01*
X150544426Y-72404668D01*
X150671817Y-72351900D01*
X150807055Y-72325000D01*
X150944945Y-72325000D01*
X151080183Y-72351900D01*
X151080183Y-72351900D01*
G37*
G36*
X155144183Y-72351900D02*
X155271574Y-72404668D01*
X155386224Y-72481274D01*
X155483726Y-72578776D01*
X155560332Y-72693426D01*
X155613100Y-72820817D01*
X155640000Y-72956055D01*
X155640000Y-73093945D01*
X155613100Y-73229183D01*
X155560332Y-73356574D01*
X155483725Y-73471225D01*
X155386225Y-73568725D01*
X155271574Y-73645332D01*
X155144183Y-73698100D01*
X155008945Y-73725000D01*
X154871055Y-73725000D01*
X154735817Y-73698100D01*
X154608426Y-73645332D01*
X154493775Y-73568725D01*
X154396275Y-73471225D01*
X154319668Y-73356574D01*
X154266900Y-73229183D01*
X154240000Y-73093945D01*
X154240000Y-72956055D01*
X154266900Y-72820817D01*
X154319668Y-72693426D01*
X154396274Y-72578776D01*
X154493776Y-72481274D01*
X154608426Y-72404668D01*
X154735817Y-72351900D01*
X154871055Y-72325000D01*
X155008945Y-72325000D01*
X155144183Y-72351900D01*
X155144183Y-72351900D01*
G37*
G36*
X167336183Y-71843900D02*
X167463574Y-71896668D01*
X167578225Y-71973275D01*
X167675725Y-72070775D01*
X167752332Y-72185426D01*
X167805100Y-72312817D01*
X167832000Y-72448055D01*
X167832000Y-72585945D01*
X167805100Y-72721183D01*
X167752332Y-72848574D01*
X167675725Y-72963225D01*
X167578225Y-73060725D01*
X167463574Y-73137332D01*
X167336183Y-73190100D01*
X167200945Y-73217000D01*
X167063055Y-73217000D01*
X166927817Y-73190100D01*
X166800426Y-73137332D01*
X166685775Y-73060725D01*
X166588275Y-72963225D01*
X166511668Y-72848574D01*
X166458900Y-72721183D01*
X166432000Y-72585945D01*
X166432000Y-72448055D01*
X166458900Y-72312817D01*
X166511668Y-72185426D01*
X166588275Y-72070775D01*
X166685775Y-71973275D01*
X166800426Y-71896668D01*
X166927817Y-71843900D01*
X167063055Y-71817000D01*
X167200945Y-71817000D01*
X167336183Y-71843900D01*
X167336183Y-71843900D01*
G37*
G36*
X139904183Y-71843900D02*
X140031574Y-71896668D01*
X140146225Y-71973275D01*
X140243725Y-72070775D01*
X140320332Y-72185426D01*
X140373100Y-72312817D01*
X140400000Y-72448055D01*
X140400000Y-72585945D01*
X140373100Y-72721183D01*
X140320332Y-72848574D01*
X140243725Y-72963225D01*
X140146225Y-73060725D01*
X140031574Y-73137332D01*
X139904183Y-73190100D01*
X139768945Y-73217000D01*
X139631055Y-73217000D01*
X139495817Y-73190100D01*
X139368426Y-73137332D01*
X139253775Y-73060725D01*
X139156275Y-72963225D01*
X139079668Y-72848574D01*
X139026900Y-72721183D01*
X139000000Y-72585945D01*
X139000000Y-72448055D01*
X139026900Y-72312817D01*
X139079668Y-72185426D01*
X139156275Y-72070775D01*
X139253775Y-71973275D01*
X139368426Y-71896668D01*
X139495817Y-71843900D01*
X139631055Y-71817000D01*
X139768945Y-71817000D01*
X139904183Y-71843900D01*
X139904183Y-71843900D01*
G37*
G36*
X155077224Y-64715128D02*
X155209175Y-64755155D01*
X155330781Y-64820155D01*
X155437370Y-64907630D01*
X155524845Y-65014219D01*
X155589845Y-65135825D01*
X155629872Y-65267776D01*
X155643387Y-65405000D01*
X155629872Y-65542224D01*
X155589845Y-65674175D01*
X155524845Y-65795781D01*
X155437370Y-65902370D01*
X155330781Y-65989845D01*
X155209175Y-66054845D01*
X155077224Y-66094872D01*
X154974390Y-66105000D01*
X154905610Y-66105000D01*
X154802776Y-66094872D01*
X154670825Y-66054845D01*
X154549219Y-65989845D01*
X154442630Y-65902370D01*
X154355155Y-65795781D01*
X154290155Y-65674175D01*
X154250128Y-65542224D01*
X154236613Y-65405000D01*
X154250128Y-65267776D01*
X154290155Y-65135825D01*
X154355155Y-65014219D01*
X154442630Y-64907630D01*
X154549219Y-64820155D01*
X154670825Y-64755155D01*
X154802776Y-64715128D01*
X154905610Y-64705000D01*
X154974390Y-64705000D01*
X155077224Y-64715128D01*
X155077224Y-64715128D01*
G37*
G36*
X151013224Y-64715128D02*
X151145175Y-64755155D01*
X151266781Y-64820155D01*
X151373370Y-64907630D01*
X151460845Y-65014219D01*
X151525845Y-65135825D01*
X151565872Y-65267776D01*
X151579387Y-65405000D01*
X151565872Y-65542224D01*
X151525845Y-65674175D01*
X151460845Y-65795781D01*
X151373370Y-65902370D01*
X151266781Y-65989845D01*
X151145175Y-66054845D01*
X151013224Y-66094872D01*
X150910390Y-66105000D01*
X150841610Y-66105000D01*
X150738776Y-66094872D01*
X150606825Y-66054845D01*
X150485219Y-65989845D01*
X150378630Y-65902370D01*
X150291155Y-65795781D01*
X150226155Y-65674175D01*
X150186128Y-65542224D01*
X150172613Y-65405000D01*
X150186128Y-65267776D01*
X150226155Y-65135825D01*
X150291155Y-65014219D01*
X150378630Y-64907630D01*
X150485219Y-64820155D01*
X150606825Y-64755155D01*
X150738776Y-64715128D01*
X150841610Y-64705000D01*
X150910390Y-64705000D01*
X151013224Y-64715128D01*
X151013224Y-64715128D01*
G37*
G36*
X139837224Y-64207128D02*
X139969175Y-64247155D01*
X140090781Y-64312155D01*
X140197370Y-64399630D01*
X140284845Y-64506219D01*
X140349845Y-64627825D01*
X140389872Y-64759776D01*
X140403387Y-64897000D01*
X140389872Y-65034224D01*
X140349845Y-65166175D01*
X140284845Y-65287781D01*
X140197370Y-65394370D01*
X140090781Y-65481845D01*
X139969175Y-65546845D01*
X139837224Y-65586872D01*
X139734390Y-65597000D01*
X139665610Y-65597000D01*
X139562776Y-65586872D01*
X139430825Y-65546845D01*
X139309219Y-65481845D01*
X139202630Y-65394370D01*
X139115155Y-65287781D01*
X139050155Y-65166175D01*
X139010128Y-65034224D01*
X138996613Y-64897000D01*
X139010128Y-64759776D01*
X139050155Y-64627825D01*
X139115155Y-64506219D01*
X139202630Y-64399630D01*
X139309219Y-64312155D01*
X139430825Y-64247155D01*
X139562776Y-64207128D01*
X139665610Y-64197000D01*
X139734390Y-64197000D01*
X139837224Y-64207128D01*
X139837224Y-64207128D01*
G37*
G36*
X167269224Y-64207128D02*
X167401175Y-64247155D01*
X167522781Y-64312155D01*
X167629370Y-64399630D01*
X167716845Y-64506219D01*
X167781845Y-64627825D01*
X167821872Y-64759776D01*
X167835387Y-64897000D01*
X167821872Y-65034224D01*
X167781845Y-65166175D01*
X167716845Y-65287781D01*
X167629370Y-65394370D01*
X167522781Y-65481845D01*
X167401175Y-65546845D01*
X167269224Y-65586872D01*
X167166390Y-65597000D01*
X167097610Y-65597000D01*
X166994776Y-65586872D01*
X166862825Y-65546845D01*
X166741219Y-65481845D01*
X166634630Y-65394370D01*
X166547155Y-65287781D01*
X166482155Y-65166175D01*
X166442128Y-65034224D01*
X166428613Y-64897000D01*
X166442128Y-64759776D01*
X166482155Y-64627825D01*
X166547155Y-64506219D01*
X166634630Y-64399630D01*
X166741219Y-64312155D01*
X166862825Y-64247155D01*
X166994776Y-64207128D01*
X167097610Y-64197000D01*
X167166390Y-64197000D01*
X167269224Y-64207128D01*
X167269224Y-64207128D01*
G37*
G36*
X141994521Y-60983586D02*
X142158309Y-61051429D01*
X142305720Y-61149926D01*
X142431074Y-61275280D01*
X142529571Y-61422691D01*
X142597414Y-61586479D01*
X142632000Y-61760356D01*
X142632000Y-61937644D01*
X142597414Y-62111521D01*
X142529571Y-62275309D01*
X142431074Y-62422720D01*
X142305720Y-62548074D01*
X142158309Y-62646571D01*
X141994521Y-62714414D01*
X141820644Y-62749000D01*
X141643356Y-62749000D01*
X141469479Y-62714414D01*
X141305691Y-62646571D01*
X141158280Y-62548074D01*
X141032926Y-62422720D01*
X140934429Y-62275309D01*
X140866586Y-62111521D01*
X140832000Y-61937644D01*
X140832000Y-61760356D01*
X140866586Y-61586479D01*
X140934429Y-61422691D01*
X141032926Y-61275280D01*
X141158280Y-61149926D01*
X141305691Y-61051429D01*
X141469479Y-60983586D01*
X141643356Y-60949000D01*
X141820644Y-60949000D01*
X141994521Y-60983586D01*
X141994521Y-60983586D01*
G37*
G36*
X165362521Y-60983586D02*
X165526309Y-61051429D01*
X165673720Y-61149926D01*
X165799074Y-61275280D01*
X165897571Y-61422691D01*
X165965414Y-61586479D01*
X166000000Y-61760356D01*
X166000000Y-61937644D01*
X165965414Y-62111521D01*
X165897571Y-62275309D01*
X165799074Y-62422720D01*
X165673720Y-62548074D01*
X165526309Y-62646571D01*
X165362521Y-62714414D01*
X165188644Y-62749000D01*
X165011356Y-62749000D01*
X164837479Y-62714414D01*
X164673691Y-62646571D01*
X164526280Y-62548074D01*
X164400926Y-62422720D01*
X164302429Y-62275309D01*
X164234586Y-62111521D01*
X164200000Y-61937644D01*
X164200000Y-61760356D01*
X164234586Y-61586479D01*
X164302429Y-61422691D01*
X164400926Y-61275280D01*
X164526280Y-61149926D01*
X164673691Y-61051429D01*
X164837479Y-60983586D01*
X165011356Y-60949000D01*
X165188644Y-60949000D01*
X165362521Y-60983586D01*
X165362521Y-60983586D01*
G37*
G36*
X157234521Y-60983586D02*
X157398309Y-61051429D01*
X157545720Y-61149926D01*
X157671074Y-61275280D01*
X157769571Y-61422691D01*
X157837414Y-61586479D01*
X157872000Y-61760356D01*
X157872000Y-61937644D01*
X157837414Y-62111521D01*
X157769571Y-62275309D01*
X157671074Y-62422720D01*
X157545720Y-62548074D01*
X157398309Y-62646571D01*
X157234521Y-62714414D01*
X157060644Y-62749000D01*
X156883356Y-62749000D01*
X156709479Y-62714414D01*
X156545691Y-62646571D01*
X156398280Y-62548074D01*
X156272926Y-62422720D01*
X156174429Y-62275309D01*
X156106586Y-62111521D01*
X156072000Y-61937644D01*
X156072000Y-61760356D01*
X156106586Y-61586479D01*
X156174429Y-61422691D01*
X156272926Y-61275280D01*
X156398280Y-61149926D01*
X156545691Y-61051429D01*
X156709479Y-60983586D01*
X156883356Y-60949000D01*
X157060644Y-60949000D01*
X157234521Y-60983586D01*
X157234521Y-60983586D01*
G37*
G36*
X149614521Y-60983586D02*
X149778309Y-61051429D01*
X149925720Y-61149926D01*
X150051074Y-61275280D01*
X150149571Y-61422691D01*
X150217414Y-61586479D01*
X150252000Y-61760356D01*
X150252000Y-61937644D01*
X150217414Y-62111521D01*
X150149571Y-62275309D01*
X150051074Y-62422720D01*
X149925720Y-62548074D01*
X149778309Y-62646571D01*
X149614521Y-62714414D01*
X149440644Y-62749000D01*
X149263356Y-62749000D01*
X149089479Y-62714414D01*
X148925691Y-62646571D01*
X148778280Y-62548074D01*
X148652926Y-62422720D01*
X148554429Y-62275309D01*
X148486586Y-62111521D01*
X148452000Y-61937644D01*
X148452000Y-61760356D01*
X148486586Y-61586479D01*
X148554429Y-61422691D01*
X148652926Y-61275280D01*
X148778280Y-61149926D01*
X148925691Y-61051429D01*
X149089479Y-60983586D01*
X149263356Y-60949000D01*
X149440644Y-60949000D01*
X149614521Y-60983586D01*
X149614521Y-60983586D01*
G37*
G36*
X142632000Y-60209000D02*
X140832000Y-60209000D01*
X140832000Y-58409000D01*
X142632000Y-58409000D01*
X142632000Y-60209000D01*
X142632000Y-60209000D01*
G37*
G36*
X150252000Y-60209000D02*
X148452000Y-60209000D01*
X148452000Y-58409000D01*
X150252000Y-58409000D01*
X150252000Y-60209000D01*
X150252000Y-60209000D01*
G37*
G36*
X157872000Y-60209000D02*
X156072000Y-60209000D01*
X156072000Y-58409000D01*
X157872000Y-58409000D01*
X157872000Y-60209000D01*
X157872000Y-60209000D01*
G37*
G36*
X166000000Y-60209000D02*
X164200000Y-60209000D01*
X164200000Y-58409000D01*
X166000000Y-58409000D01*
X166000000Y-60209000D01*
X166000000Y-60209000D01*
G37*
G36*
X161029765Y-55904403D02*
X161152445Y-55928805D01*
X161383571Y-56024541D01*
X161591581Y-56163529D01*
X161768471Y-56340419D01*
X161768473Y-56340422D01*
X161907459Y-56548429D01*
X162003195Y-56779555D01*
X162052000Y-57024916D01*
X162052000Y-57275084D01*
X162003195Y-57520445D01*
X161907459Y-57751571D01*
X161768471Y-57959581D01*
X161591581Y-58136471D01*
X161591578Y-58136473D01*
X161383571Y-58275459D01*
X161152445Y-58371195D01*
X161029764Y-58395598D01*
X160907086Y-58420000D01*
X160656914Y-58420000D01*
X160534236Y-58395598D01*
X160411555Y-58371195D01*
X160180429Y-58275459D01*
X159972422Y-58136473D01*
X159972419Y-58136471D01*
X159795529Y-57959581D01*
X159656541Y-57751571D01*
X159560805Y-57520445D01*
X159512000Y-57275084D01*
X159512000Y-57024916D01*
X159560805Y-56779555D01*
X159656541Y-56548429D01*
X159795527Y-56340422D01*
X159795529Y-56340419D01*
X159972419Y-56163529D01*
X160180429Y-56024541D01*
X160411555Y-55928805D01*
X160534235Y-55904403D01*
X160656914Y-55880000D01*
X160907086Y-55880000D01*
X161029765Y-55904403D01*
X161029765Y-55904403D01*
G37*
G36*
X145789765Y-55904403D02*
X145912445Y-55928805D01*
X146143571Y-56024541D01*
X146351581Y-56163529D01*
X146528471Y-56340419D01*
X146528473Y-56340422D01*
X146667459Y-56548429D01*
X146763195Y-56779555D01*
X146812000Y-57024916D01*
X146812000Y-57275084D01*
X146763195Y-57520445D01*
X146667459Y-57751571D01*
X146528471Y-57959581D01*
X146351581Y-58136471D01*
X146351578Y-58136473D01*
X146143571Y-58275459D01*
X145912445Y-58371195D01*
X145789764Y-58395598D01*
X145667086Y-58420000D01*
X145416914Y-58420000D01*
X145294236Y-58395598D01*
X145171555Y-58371195D01*
X144940429Y-58275459D01*
X144732422Y-58136473D01*
X144732419Y-58136471D01*
X144555529Y-57959581D01*
X144416541Y-57751571D01*
X144320805Y-57520445D01*
X144272000Y-57275084D01*
X144272000Y-57024916D01*
X144320805Y-56779555D01*
X144416541Y-56548429D01*
X144555527Y-56340422D01*
X144555529Y-56340419D01*
X144732419Y-56163529D01*
X144940429Y-56024541D01*
X145171555Y-55928805D01*
X145294235Y-55904403D01*
X145416914Y-55880000D01*
X145667086Y-55880000D01*
X145789765Y-55904403D01*
X145789765Y-55904403D01*
G37*
M02*
