M48
;DRILL file {KiCad (5.0.2)-1} date 2019-02-17 11:05:28 AM
;FORMAT={-:-/ absolute / inch / decimal}
FMAT,2
INCH,TZ
T1C0.0276
T2C0.0295
T3C0.0315
T4C0.0315
T5C0.0320
T6C0.0354
T7C0.0400
T8C0.0433
T9C0.0700
%
G90
G05
T1
X5.9Y-4.025
X6.2Y-4.025
T2
X6.Y-3.85
X6.05Y-3.85
X6.1Y-3.85
T3
X5.9816Y-3.225
X6.08Y-3.225
T4
X5.56Y-3.675
X5.56Y-3.8
X5.56Y-3.925
X5.95Y-3.015
X6.1Y-3.015
X6.54Y-2.96
X6.54Y-3.08
X6.54Y-3.205
X6.525Y-3.675
X6.525Y-3.8
X6.525Y-3.925
X6.525Y-4.05
T5
X6.475Y-3.35
X6.475Y-3.45
X6.55Y-3.4
T6
X5.88Y-2.335
X5.88Y-2.435
X5.6802Y-2.625
X5.94Y-2.775
X6.18Y-2.335
X6.18Y-2.435
X6.1Y-2.775
X6.3598Y-2.625
X5.5Y-2.555
X5.5Y-2.855
X5.58Y-2.335
X5.58Y-2.435
X6.5Y-2.335
X6.5Y-2.435
X6.58Y-2.555
X6.58Y-2.855
T7
X5.73Y-2.88
X5.73Y-2.98
X5.73Y-3.08
X5.73Y-3.18
X5.73Y-3.28
X5.73Y-3.38
X5.73Y-3.48
X5.73Y-3.58
X5.73Y-3.68
X5.73Y-3.78
X5.73Y-3.88
X5.73Y-3.98
X5.73Y-4.08
X5.73Y-4.18
X5.73Y-4.28
X6.33Y-2.88
X6.33Y-2.98
X6.33Y-3.08
X6.33Y-3.18
X6.33Y-3.28
X6.33Y-3.38
X6.33Y-3.48
X6.33Y-3.58
X6.33Y-3.68
X6.33Y-3.78
X6.33Y-3.88
X6.33Y-3.98
X6.33Y-4.08
X6.33Y-4.18
X6.33Y-4.28
T8
X5.825Y-3.475
X6.225Y-3.475
T9
X5.5Y-4.295
X6.33Y-2.25
X6.58Y-4.295
X5.73Y-2.25
T0
M30
