G04 #@! TF.GenerationSoftware,KiCad,Pcbnew,(5.0.2)-1*
G04 #@! TF.CreationDate,2019-02-04T22:04:25-05:00*
G04 #@! TF.ProjectId,main,6d61696e-2e6b-4696-9361-645f70636258,rev?*
G04 #@! TF.SameCoordinates,Original*
G04 #@! TF.FileFunction,Copper,L2,Bot*
G04 #@! TF.FilePolarity,Positive*
%FSLAX46Y46*%
G04 Gerber Fmt 4.6, Leading zero omitted, Abs format (unit mm)*
G04 Created by KiCad (PCBNEW (5.0.2)-1) date 2019-02-04 10:04:25 PM*
%MOMM*%
%LPD*%
G01*
G04 APERTURE LIST*
G04 #@! TA.AperFunction,ComponentPad*
%ADD10R,1.998980X1.998980*%
G04 #@! TD*
G04 #@! TA.AperFunction,ComponentPad*
%ADD11C,1.998980*%
G04 #@! TD*
G04 #@! TA.AperFunction,ComponentPad*
%ADD12C,1.879600*%
G04 #@! TD*
G04 #@! TA.AperFunction,ComponentPad*
%ADD13O,2.032000X1.727200*%
G04 #@! TD*
G04 #@! TA.AperFunction,ComponentPad*
%ADD14C,2.540000*%
G04 #@! TD*
G04 #@! TA.AperFunction,ComponentPad*
%ADD15C,1.600000*%
G04 #@! TD*
G04 #@! TA.AperFunction,ComponentPad*
%ADD16R,1.800000X1.800000*%
G04 #@! TD*
G04 #@! TA.AperFunction,ComponentPad*
%ADD17C,1.800000*%
G04 #@! TD*
G04 #@! TA.AperFunction,ComponentPad*
%ADD18R,2.200000X2.200000*%
G04 #@! TD*
G04 #@! TA.AperFunction,ComponentPad*
%ADD19O,2.200000X2.200000*%
G04 #@! TD*
G04 #@! TA.AperFunction,ComponentPad*
%ADD20O,1.050000X1.500000*%
G04 #@! TD*
G04 #@! TA.AperFunction,ComponentPad*
%ADD21R,1.050000X1.500000*%
G04 #@! TD*
G04 #@! TA.AperFunction,ComponentPad*
%ADD22O,1.400000X1.400000*%
G04 #@! TD*
G04 #@! TA.AperFunction,ComponentPad*
%ADD23C,1.400000*%
G04 #@! TD*
G04 #@! TA.AperFunction,Conductor*
%ADD24C,0.440000*%
G04 #@! TD*
G04 #@! TA.AperFunction,Conductor*
%ADD25C,0.250000*%
G04 #@! TD*
G04 APERTURE END LIST*
D10*
G04 #@! TO.P,U3,14*
G04 #@! TO.N,+3V3*
X167005000Y-105410000D03*
D11*
G04 #@! TO.P,U3,5*
G04 #@! TO.N,GND*
X167005000Y-102235000D03*
G04 #@! TO.P,U3,6*
G04 #@! TO.N,/A0*
X167005000Y-99060000D03*
G04 #@! TO.P,U3,4*
G04 #@! TO.N,/A1*
X167005000Y-95885000D03*
G04 #@! TD*
G04 #@! TO.P,U1,3*
G04 #@! TO.N,GND*
X166116000Y-78232000D03*
G04 #@! TO.P,U1,4*
G04 #@! TO.N,/A6*
X166116000Y-81407000D03*
G04 #@! TO.P,U1,2*
G04 #@! TO.N,/Vin*
X166116000Y-75184000D03*
G04 #@! TD*
D10*
G04 #@! TO.P,IC1,6*
G04 #@! TO.N,+5V*
X141224000Y-98933000D03*
D11*
G04 #@! TO.P,IC1,2*
G04 #@! TO.N,/2*
X141224000Y-102108000D03*
G04 #@! TO.P,IC1,7*
G04 #@! TO.N,GND*
X141224000Y-105283000D03*
G04 #@! TD*
D12*
G04 #@! TO.P,U2,3*
G04 #@! TO.N,GND*
X164592000Y-91059000D03*
G04 #@! TO.P,U2,2*
G04 #@! TO.N,/A3*
X166497000Y-89789000D03*
G04 #@! TO.P,U2,1*
G04 #@! TO.N,+5V*
X164592000Y-88519000D03*
G04 #@! TD*
D13*
G04 #@! TO.P,P1,1*
G04 #@! TO.N,/1(Tx)*
X145542000Y-73152000D03*
G04 #@! TO.P,P1,2*
G04 #@! TO.N,/0(Rx)*
X145542000Y-75692000D03*
G04 #@! TO.P,P1,3*
G04 #@! TO.N,/Reset*
X145542000Y-78232000D03*
G04 #@! TO.P,P1,4*
G04 #@! TO.N,GND*
X145542000Y-80772000D03*
G04 #@! TO.P,P1,5*
G04 #@! TO.N,/2*
X145542000Y-83312000D03*
G04 #@! TO.P,P1,6*
G04 #@! TO.N,/3(\002A\002A)*
X145542000Y-85852000D03*
G04 #@! TO.P,P1,7*
G04 #@! TO.N,/4*
X145542000Y-88392000D03*
G04 #@! TO.P,P1,8*
G04 #@! TO.N,/5(\002A\002A)*
X145542000Y-90932000D03*
G04 #@! TO.P,P1,9*
G04 #@! TO.N,/6(\002A\002A)*
X145542000Y-93472000D03*
G04 #@! TO.P,P1,10*
G04 #@! TO.N,/7*
X145542000Y-96012000D03*
G04 #@! TO.P,P1,11*
G04 #@! TO.N,/8*
X145542000Y-98552000D03*
G04 #@! TO.P,P1,12*
G04 #@! TO.N,/9(\002A\002A)*
X145542000Y-101092000D03*
G04 #@! TO.P,P1,13*
G04 #@! TO.N,/10(\002A\002A/SS)*
X145542000Y-103632000D03*
G04 #@! TO.P,P1,14*
G04 #@! TO.N,/11(\002A\002A/MOSI)*
X145542000Y-106172000D03*
G04 #@! TO.P,P1,15*
G04 #@! TO.N,/12(MISO)*
X145542000Y-108712000D03*
G04 #@! TD*
G04 #@! TO.P,P2,1*
G04 #@! TO.N,/Vin*
X160782000Y-73152000D03*
G04 #@! TO.P,P2,2*
G04 #@! TO.N,GND*
X160782000Y-75692000D03*
G04 #@! TO.P,P2,3*
G04 #@! TO.N,/Reset*
X160782000Y-78232000D03*
G04 #@! TO.P,P2,4*
G04 #@! TO.N,+5V*
X160782000Y-80772000D03*
G04 #@! TO.P,P2,5*
G04 #@! TO.N,/A7*
X160782000Y-83312000D03*
G04 #@! TO.P,P2,6*
G04 #@! TO.N,/A6*
X160782000Y-85852000D03*
G04 #@! TO.P,P2,7*
G04 #@! TO.N,/A5*
X160782000Y-88392000D03*
G04 #@! TO.P,P2,8*
G04 #@! TO.N,/A4*
X160782000Y-90932000D03*
G04 #@! TO.P,P2,9*
G04 #@! TO.N,/A3*
X160782000Y-93472000D03*
G04 #@! TO.P,P2,10*
G04 #@! TO.N,/A2*
X160782000Y-96012000D03*
G04 #@! TO.P,P2,11*
G04 #@! TO.N,/A1*
X160782000Y-98552000D03*
G04 #@! TO.P,P2,12*
G04 #@! TO.N,/A0*
X160782000Y-101092000D03*
G04 #@! TO.P,P2,13*
G04 #@! TO.N,/AREF*
X160782000Y-103632000D03*
G04 #@! TO.P,P2,14*
G04 #@! TO.N,+3V3*
X160782000Y-106172000D03*
G04 #@! TO.P,P2,15*
G04 #@! TO.N,/13(SCK)*
X160782000Y-108712000D03*
G04 #@! TD*
D14*
G04 #@! TO.P,P3,1*
G04 #@! TO.N,Net-(P3-Pad1)*
X145542000Y-57150000D03*
G04 #@! TD*
G04 #@! TO.P,P4,1*
G04 #@! TO.N,Net-(P4-Pad1)*
X139700000Y-109093000D03*
G04 #@! TD*
G04 #@! TO.P,P5,1*
G04 #@! TO.N,Net-(P5-Pad1)*
X167132000Y-109093000D03*
G04 #@! TD*
G04 #@! TO.P,P6,1*
G04 #@! TO.N,Net-(P6-Pad1)*
X160782000Y-57150000D03*
G04 #@! TD*
D15*
G04 #@! TO.P,C1,1*
G04 #@! TO.N,/A7*
X154432000Y-80645000D03*
G04 #@! TO.P,C1,2*
G04 #@! TO.N,Net-(C1-Pad2)*
X151932000Y-80645000D03*
G04 #@! TD*
D16*
G04 #@! TO.P,D1,1*
G04 #@! TO.N,GND*
X165100000Y-59309000D03*
D17*
G04 #@! TO.P,D1,2*
G04 #@! TO.N,Net-(D1-Pad2)*
X165100000Y-61849000D03*
G04 #@! TD*
G04 #@! TO.P,D2,2*
G04 #@! TO.N,Net-(D2-Pad2)*
X156972000Y-61849000D03*
D16*
G04 #@! TO.P,D2,1*
G04 #@! TO.N,GND*
X156972000Y-59309000D03*
G04 #@! TD*
G04 #@! TO.P,D3,1*
G04 #@! TO.N,GND*
X149352000Y-59309000D03*
D17*
G04 #@! TO.P,D3,2*
G04 #@! TO.N,Net-(D3-Pad2)*
X149352000Y-61849000D03*
G04 #@! TD*
G04 #@! TO.P,D4,2*
G04 #@! TO.N,Net-(D4-Pad2)*
X141732000Y-61849000D03*
D16*
G04 #@! TO.P,D4,1*
G04 #@! TO.N,GND*
X141732000Y-59309000D03*
G04 #@! TD*
D18*
G04 #@! TO.P,D5,1*
G04 #@! TO.N,/A7*
X157988000Y-84709000D03*
D19*
G04 #@! TO.P,D5,2*
G04 #@! TO.N,Net-(C1-Pad2)*
X147828000Y-84709000D03*
G04 #@! TD*
D10*
G04 #@! TO.P,M1,1*
G04 #@! TO.N,/A7*
X154940000Y-76581000D03*
D11*
G04 #@! TO.P,M1,2*
G04 #@! TO.N,Net-(C1-Pad2)*
X151130000Y-76581000D03*
G04 #@! TD*
D20*
G04 #@! TO.P,Q1,2*
G04 #@! TO.N,Net-(Q1-Pad2)*
X153670000Y-90805000D03*
G04 #@! TO.P,Q1,3*
G04 #@! TO.N,Net-(C1-Pad2)*
X154940000Y-90805000D03*
D21*
G04 #@! TO.P,Q1,1*
G04 #@! TO.N,GND*
X152400000Y-90805000D03*
G04 #@! TD*
D22*
G04 #@! TO.P,R1,2*
G04 #@! TO.N,Net-(D1-Pad2)*
X167132000Y-64897000D03*
D23*
G04 #@! TO.P,R1,1*
G04 #@! TO.N,/Vin*
X167132000Y-72517000D03*
G04 #@! TD*
G04 #@! TO.P,R2,1*
G04 #@! TO.N,/A7*
X154940000Y-73025000D03*
D22*
G04 #@! TO.P,R2,2*
G04 #@! TO.N,Net-(D2-Pad2)*
X154940000Y-65405000D03*
G04 #@! TD*
G04 #@! TO.P,R3,2*
G04 #@! TO.N,Net-(D3-Pad2)*
X150876000Y-65405000D03*
D23*
G04 #@! TO.P,R3,1*
G04 #@! TO.N,/2*
X150876000Y-73025000D03*
G04 #@! TD*
G04 #@! TO.P,R4,1*
G04 #@! TO.N,/8*
X139700000Y-72517000D03*
D22*
G04 #@! TO.P,R4,2*
G04 #@! TO.N,Net-(D4-Pad2)*
X139700000Y-64897000D03*
G04 #@! TD*
D23*
G04 #@! TO.P,R5,1*
G04 #@! TO.N,/7*
X149860000Y-95885000D03*
D22*
G04 #@! TO.P,R5,2*
G04 #@! TO.N,Net-(Q1-Pad2)*
X157480000Y-95885000D03*
G04 #@! TD*
D24*
G04 #@! TO.N,GND*
X162048000Y-75692000D02*
X163068000Y-76712000D01*
X160782000Y-75692000D02*
X162048000Y-75692000D01*
X160629600Y-75692000D02*
X158496000Y-73558400D01*
X158496000Y-67437000D02*
X161036000Y-64897000D01*
X161036000Y-64897000D02*
X161036000Y-62223000D01*
X163950000Y-59309000D02*
X165100000Y-59309000D01*
X161036000Y-62223000D02*
X163950000Y-59309000D01*
X158122000Y-59309000D02*
X156972000Y-59309000D01*
X161036000Y-62223000D02*
X158122000Y-59309000D01*
X156972000Y-59309000D02*
X149352000Y-59309000D01*
X149352000Y-59309000D02*
X141732000Y-59309000D01*
X152400000Y-90805000D02*
X152400000Y-86233000D01*
X152400000Y-86233000D02*
X157480000Y-81153000D01*
D25*
X160629600Y-75692000D02*
X160782000Y-75692000D01*
D24*
X157480000Y-78841600D02*
X160629600Y-75692000D01*
X157480000Y-81153000D02*
X157480000Y-78841600D01*
X158496000Y-68961000D02*
X158496000Y-67437000D01*
X158496000Y-73558400D02*
X158496000Y-68961000D01*
X144276000Y-80772000D02*
X139192000Y-85856000D01*
D25*
X145542000Y-80772000D02*
X144276000Y-80772000D01*
D24*
X139192000Y-85856000D02*
X139192000Y-105029000D01*
X139446000Y-105283000D02*
X141224000Y-105283000D01*
X139192000Y-105029000D02*
X139446000Y-105283000D01*
X163588511Y-77232511D02*
X163068000Y-76712000D01*
X165116511Y-77232511D02*
X163588511Y-77232511D01*
X166116000Y-78232000D02*
X165116511Y-77232511D01*
X168148000Y-80264000D02*
X168148000Y-89535000D01*
X166116000Y-78232000D02*
X168148000Y-80264000D01*
D25*
X168148000Y-88265000D02*
X168148000Y-89535000D01*
D24*
X164592000Y-91059000D02*
X166878000Y-93345000D01*
X167513000Y-93345000D02*
X168148000Y-92710000D01*
X166878000Y-93345000D02*
X167513000Y-93345000D01*
X168148000Y-89535000D02*
X168148000Y-92710000D01*
X164592000Y-99822000D02*
X167005000Y-102235000D01*
X164592000Y-91059000D02*
X164592000Y-99822000D01*
G04 #@! TO.N,/8*
X145694400Y-98552000D02*
X148336000Y-95910400D01*
D25*
X145542000Y-98552000D02*
X145694400Y-98552000D01*
D24*
X148336000Y-95910400D02*
X148336000Y-87757000D01*
X148336000Y-87757000D02*
X149860000Y-86233000D01*
X149860000Y-86233000D02*
X149860000Y-79121000D01*
X149860000Y-79121000D02*
X148336000Y-77597000D01*
X148336000Y-77597000D02*
X148336000Y-70485000D01*
X148336000Y-70485000D02*
X146304000Y-68453000D01*
X143764000Y-68453000D02*
X139700000Y-72517000D01*
X146304000Y-68453000D02*
X143764000Y-68453000D01*
G04 #@! TO.N,/A6*
X165116511Y-82406489D02*
X166116000Y-81407000D01*
X161671000Y-85852000D02*
X165116511Y-82406489D01*
D25*
X160782000Y-85852000D02*
X161671000Y-85852000D01*
G04 #@! TD*
M02*
