G04 #@! TF.GenerationSoftware,KiCad,Pcbnew,(5.0.2)-1*
G04 #@! TF.CreationDate,2019-02-17T11:04:42-05:00*
G04 #@! TF.ProjectId,main,6d61696e-2e6b-4696-9361-645f70636258,rev?*
G04 #@! TF.SameCoordinates,Original*
G04 #@! TF.FileFunction,Legend,Bot*
G04 #@! TF.FilePolarity,Positive*
%FSLAX46Y46*%
G04 Gerber Fmt 4.6, Leading zero omitted, Abs format (unit mm)*
G04 Created by KiCad (PCBNEW (5.0.2)-1) date 2019-02-17 11:04:42 AM*
%MOMM*%
%LPD*%
G01*
G04 APERTURE LIST*
%ADD10C,0.120000*%
%ADD11C,0.150000*%
G04 APERTURE END LIST*
D10*
G04 #@! TO.C,Q1*
X151870000Y-95940000D02*
X155470000Y-95940000D01*
X151831522Y-95951522D02*
G75*
G03X153670000Y-100390000I1838478J-1838478D01*
G01*
X155508478Y-95951522D02*
G75*
G02X153670000Y-100390000I-1838478J-1838478D01*
G01*
G04 #@! TO.C,C1*
X155802000Y-80545000D02*
X150562000Y-80545000D01*
X155802000Y-83285000D02*
X150562000Y-83285000D01*
X155802000Y-80545000D02*
X155802000Y-83285000D01*
X150562000Y-80545000D02*
X150562000Y-83285000D01*
G04 #@! TO.C,D5*
X155755000Y-86795000D02*
X155755000Y-89735000D01*
X155755000Y-89735000D02*
X150315000Y-89735000D01*
X150315000Y-89735000D02*
X150315000Y-86795000D01*
X150315000Y-86795000D02*
X155755000Y-86795000D01*
X156775000Y-88265000D02*
X155755000Y-88265000D01*
X149295000Y-88265000D02*
X150315000Y-88265000D01*
X154855000Y-86795000D02*
X154855000Y-89735000D01*
X154735000Y-86795000D02*
X154735000Y-89735000D01*
X154975000Y-86795000D02*
X154975000Y-89735000D01*
G04 #@! TO.C,R5*
X151750000Y-103155000D02*
X151750000Y-101315000D01*
X151750000Y-101315000D02*
X155590000Y-101315000D01*
X155590000Y-101315000D02*
X155590000Y-103155000D01*
X155590000Y-103155000D02*
X151750000Y-103155000D01*
X150800000Y-102235000D02*
X151750000Y-102235000D01*
X156540000Y-102235000D02*
X155590000Y-102235000D01*
G04 #@! TO.C,Q1*
D11*
X153765238Y-100369619D02*
X153860476Y-100322000D01*
X153955714Y-100226761D01*
X154098571Y-100083904D01*
X154193809Y-100036285D01*
X154289047Y-100036285D01*
X154241428Y-100274380D02*
X154336666Y-100226761D01*
X154431904Y-100131523D01*
X154479523Y-99941047D01*
X154479523Y-99607714D01*
X154431904Y-99417238D01*
X154336666Y-99322000D01*
X154241428Y-99274380D01*
X154050952Y-99274380D01*
X153955714Y-99322000D01*
X153860476Y-99417238D01*
X153812857Y-99607714D01*
X153812857Y-99941047D01*
X153860476Y-100131523D01*
X153955714Y-100226761D01*
X154050952Y-100274380D01*
X154241428Y-100274380D01*
X152860476Y-100274380D02*
X153431904Y-100274380D01*
X153146190Y-100274380D02*
X153146190Y-99274380D01*
X153241428Y-99417238D01*
X153336666Y-99512476D01*
X153431904Y-99560095D01*
G04 #@! TO.C,C1*
X157329142Y-81748333D02*
X157376761Y-81700714D01*
X157424380Y-81557857D01*
X157424380Y-81462619D01*
X157376761Y-81319761D01*
X157281523Y-81224523D01*
X157186285Y-81176904D01*
X156995809Y-81129285D01*
X156852952Y-81129285D01*
X156662476Y-81176904D01*
X156567238Y-81224523D01*
X156472000Y-81319761D01*
X156424380Y-81462619D01*
X156424380Y-81557857D01*
X156472000Y-81700714D01*
X156519619Y-81748333D01*
X157424380Y-82700714D02*
X157424380Y-82129285D01*
X157424380Y-82415000D02*
X156424380Y-82415000D01*
X156567238Y-82319761D01*
X156662476Y-82224523D01*
X156710095Y-82129285D01*
G04 #@! TO.C,D5*
X153487380Y-87526904D02*
X152487380Y-87526904D01*
X152487380Y-87765000D01*
X152535000Y-87907857D01*
X152630238Y-88003095D01*
X152725476Y-88050714D01*
X152915952Y-88098333D01*
X153058809Y-88098333D01*
X153249285Y-88050714D01*
X153344523Y-88003095D01*
X153439761Y-87907857D01*
X153487380Y-87765000D01*
X153487380Y-87526904D01*
X152487380Y-89003095D02*
X152487380Y-88526904D01*
X152963571Y-88479285D01*
X152915952Y-88526904D01*
X152868333Y-88622142D01*
X152868333Y-88860238D01*
X152915952Y-88955476D01*
X152963571Y-89003095D01*
X153058809Y-89050714D01*
X153296904Y-89050714D01*
X153392142Y-89003095D01*
X153439761Y-88955476D01*
X153487380Y-88860238D01*
X153487380Y-88622142D01*
X153439761Y-88526904D01*
X153392142Y-88479285D01*
X158376904Y-86617380D02*
X158376904Y-85617380D01*
X157805476Y-86617380D02*
X158234047Y-86045952D01*
X157805476Y-85617380D02*
X158376904Y-86188809D01*
G04 #@! TO.C,M1*
X157424380Y-75771476D02*
X156424380Y-75771476D01*
X157138666Y-76104809D01*
X156424380Y-76438142D01*
X157424380Y-76438142D01*
X157424380Y-77438142D02*
X157424380Y-76866714D01*
X157424380Y-77152428D02*
X156424380Y-77152428D01*
X156567238Y-77057190D01*
X156662476Y-76961952D01*
X156710095Y-76866714D01*
G04 #@! TO.C,R5*
X153836666Y-104592380D02*
X154170000Y-104116190D01*
X154408095Y-104592380D02*
X154408095Y-103592380D01*
X154027142Y-103592380D01*
X153931904Y-103640000D01*
X153884285Y-103687619D01*
X153836666Y-103782857D01*
X153836666Y-103925714D01*
X153884285Y-104020952D01*
X153931904Y-104068571D01*
X154027142Y-104116190D01*
X154408095Y-104116190D01*
X152931904Y-103592380D02*
X153408095Y-103592380D01*
X153455714Y-104068571D01*
X153408095Y-104020952D01*
X153312857Y-103973333D01*
X153074761Y-103973333D01*
X152979523Y-104020952D01*
X152931904Y-104068571D01*
X152884285Y-104163809D01*
X152884285Y-104401904D01*
X152931904Y-104497142D01*
X152979523Y-104544761D01*
X153074761Y-104592380D01*
X153312857Y-104592380D01*
X153408095Y-104544761D01*
X153455714Y-104497142D01*
G04 #@! TD*
M02*
